<svg width="276" height="24" viewBox="0 0 276 24" fill="none" xmlns="http://www.w3.org/2000/svg">
  <path
    d="M4.47228 6.15408L2.57678 4.48943L4.56312 2.53776L6.25574 4.39879C6.59883 4.13848 6.95894 3.90129 7.33369 3.68882L6.23151 1.44109L8.82647 0.383686L9.66521 2.74018C10.0842 2.62975 10.5101 2.54699 10.94 2.49245L10.7977 0H13.6076L13.4532 2.49245C13.8831 2.54714 14.3089 2.6299 14.7279 2.74018L15.5667 0.383686L18.1616 1.44109L17.0867 3.68882C17.4613 3.90148 17.8214 4.13866 18.1647 4.39879L19.8573 2.53776L21.8436 4.48943L19.9481 6.15408C20.213 6.49093 20.4547 6.8452 20.6718 7.2145L22.9609 6.13293L24.0359 8.68278L21.6286 9.50755C21.7402 9.91842 21.8242 10.3363 21.88 10.7583L24.4174 10.6193V13.3807L21.88 13.2417C21.8245 13.6638 21.7405 14.0816 21.6286 14.4924L24.0268 15.3172L22.9518 17.8671L20.6627 16.7855C20.4454 17.1546 20.2036 17.5089 19.939 17.8459L21.8345 19.5106L19.8482 21.4622L18.1556 19.6012C17.8124 19.8613 17.4523 20.0985 17.0776 20.3112L18.1798 22.5589L15.5848 23.6163L14.7461 21.2598C14.3271 21.3701 13.9012 21.4529 13.4713 21.5076L13.6137 24H10.8037L10.946 21.5076C10.5162 21.4528 10.0903 21.37 9.67126 21.2598L8.83253 23.6163L6.23757 22.5589L7.33974 20.3112C6.96511 20.0985 6.605 19.8614 6.2618 19.6012L4.56917 21.4622L2.58284 19.5106L4.47833 17.8459C4.2136 17.509 3.97183 17.1547 3.75465 16.7855L1.46553 17.8671L0.390603 15.3172L2.78874 14.4924C2.67664 14.0817 2.59267 13.6638 2.53742 13.2417L0 13.3807V10.6163L2.53742 10.7553C2.59266 10.3332 2.67663 9.91528 2.78874 9.50453L0.390603 8.67976L1.46553 6.12991L3.76374 7.2145C3.97616 6.84578 4.21285 6.49153 4.47228 6.15408ZM6.28905 11.997C6.27102 13.1682 6.60265 14.3184 7.24172 15.301C7.88079 16.2837 8.79841 17.0544 9.87782 17.5151C10.9572 17.9759 12.1496 18.1058 13.3032 17.8883C14.4569 17.6709 15.5196 17.1159 16.3561 16.2941C17.1927 15.4722 17.7653 14.4206 18.0011 13.273C18.2368 12.1255 18.1251 10.9339 17.68 9.84994C17.235 8.76596 16.4768 7.83858 15.502 7.18582C14.5271 6.53306 13.3797 6.18443 12.2057 6.18429C11.4346 6.17832 10.67 6.32393 9.95537 6.61282C9.24075 6.9017 8.59016 7.3282 8.04074 7.86796C7.49133 8.40773 7.05386 9.05018 6.7533 9.75864C6.45274 10.4671 6.29499 11.2277 6.28905 11.997V11.997ZM141.272 5.77341L150.659 15.0453V6.25378H152V18.1148L142.613 8.85801V17.6042H141.272V5.77341ZM124.882 11.9245C124.882 14.4834 127.083 16.6193 129.814 16.6193C132.545 16.6193 134.744 14.4834 134.744 11.9245C134.744 9.36556 132.573 7.22659 129.814 7.22659C127.056 7.22659 124.882 9.35347 124.882 11.9245ZM136.085 11.9396C136.085 15.2054 133.245 17.7946 129.814 17.7946C126.384 17.7946 123.543 15.2054 123.543 11.9396C123.543 8.67372 126.384 6.05438 129.814 6.05438C133.245 6.05438 136.085 8.69184 136.085 11.9426V11.9396ZM117.936 8.46526C117.457 7.68278 116.882 7.22961 115.861 7.22961C114.793 7.22961 113.866 7.95166 113.866 8.99094C113.866 9.96979 114.935 10.4199 115.749 10.7674L116.549 11.0997C118.114 11.7462 119.437 12.4834 119.437 14.29C119.437 16.2779 117.745 17.7976 115.656 17.7976C113.724 17.7976 112.288 16.6224 111.907 14.861L113.215 14.5136C113.289 15.1009 113.577 15.6407 114.023 16.0305C114.47 16.4203 115.044 16.633 115.637 16.6284C116.93 16.6284 118.111 15.6949 118.111 14.4169C118.111 13.139 117.009 12.6405 115.892 12.1601L115.159 11.858C113.754 11.2538 112.543 10.5801 112.543 8.95468C112.543 7.19335 114.123 6.06344 115.91 6.06344C116.54 6.04884 117.162 6.20492 117.71 6.51507C118.258 6.82522 118.712 7.27785 119.023 7.82477L117.936 8.46526ZM102.369 11.5076H102.778C104.292 11.5076 105.824 11.2356 105.824 9.47432C105.824 7.60725 104.37 7.42598 102.759 7.42598H102.36L102.369 11.5076ZM102.369 17.6042H101.028V6.25378H102.778C105.061 6.25378 107.18 6.82477 107.18 9.38368C107.18 11.1299 106.015 12.3625 104.152 12.5136L107.986 17.6042H106.342L102.708 12.6224H102.372L102.369 17.6042ZM89.5879 6.25378H95.8134V7.42598H90.9263V10.8006H95.6801V11.9758H90.9263V16.432H95.8134V17.6072H89.5879V6.25378ZM79.8985 11.4622H80.8069C82.2906 11.4622 83.5502 11.0393 83.5502 9.4139C83.5502 7.56193 81.9696 7.42598 80.4072 7.42598H79.9136L79.8985 11.4622ZM79.8985 17.6042H78.5541V6.25378H80.5344C81.5699 6.25378 82.6539 6.28399 83.5169 6.85801C83.9406 7.14332 84.2865 7.5294 84.5233 7.9814C84.7601 8.43341 84.8804 8.93714 84.8734 9.44713C84.8774 9.91333 84.7763 10.3745 84.5777 10.7965C84.3791 11.2185 84.0879 11.5905 83.7258 11.8852C82.9113 12.5166 81.8757 12.6375 80.8705 12.6375H79.8955L79.8985 17.6042ZM68.8646 8.18127V10.6798H72.4497V12.6073H68.8646V15.6798H72.589V17.6072H66.6118V6.25378H72.589V8.18127H68.8646ZM57.2494 13.0151L60.0018 6.26586H62.4242L57.2948 18.2356L52.2109 6.25378H54.6333L57.2494 13.0151ZM48.0324 17.6072H45.7796V6.25378H48.0324V17.6072ZM38.2824 15.6798H41.4708V17.6072H36.0205V6.25378H38.2824V15.6798Z"
    fill="#FF6900" />
  <line opacity="0.2" x1="168.5" y1="2.18557e-08" x2="168.5" y2="24" stroke="var(--body-text)" />
  <path
    d="M187.562 11.7734L186.344 13.0859V16.3359H184V4.96094H186.344V10.1172L187.375 8.70312L190.273 4.96094H193.156L189.117 10.0156L193.273 16.3359H190.484L187.562 11.7734Z"
    fill="var(--body-text)" />
  <path
    d="M197.686 7.88281L197.756 8.85938C198.36 8.10417 199.17 7.72656 200.186 7.72656C201.082 7.72656 201.748 7.98958 202.186 8.51562C202.623 9.04167 202.847 9.82812 202.858 10.875V16.3359H200.6V10.9297C200.6 10.4505 200.496 10.1042 200.288 9.89062C200.079 9.67188 199.733 9.5625 199.248 9.5625C198.613 9.5625 198.136 9.83333 197.819 10.375V16.3359H195.561V7.88281H197.686Z"
    fill="var(--body-text)" />
  <path
    d="M205.825 12.0312C205.825 11.1927 205.986 10.4453 206.309 9.78906C206.632 9.13281 207.096 8.625 207.7 8.26562C208.309 7.90625 209.015 7.72656 209.817 7.72656C210.958 7.72656 211.888 8.07552 212.606 8.77344C213.33 9.47135 213.734 10.4193 213.817 11.6172L213.833 12.1953C213.833 13.4922 213.471 14.5339 212.747 15.3203C212.023 16.1016 211.052 16.4922 209.833 16.4922C208.614 16.4922 207.64 16.1016 206.911 15.3203C206.187 14.5391 205.825 13.4766 205.825 12.1328V12.0312ZM208.083 12.1953C208.083 12.9974 208.234 13.612 208.536 14.0391C208.838 14.4609 209.27 14.6719 209.833 14.6719C210.38 14.6719 210.807 14.4635 211.114 14.0469C211.421 13.625 211.575 12.9531 211.575 12.0312C211.575 11.2448 211.421 10.6354 211.114 10.2031C210.807 9.77083 210.374 9.55469 209.817 9.55469C209.265 9.55469 208.838 9.77083 208.536 10.2031C208.234 10.6302 208.083 11.2943 208.083 12.1953Z"
    fill="var(--body-text)" />
  <path
    d="M224.175 13.2656L225.284 7.88281H227.464L225.308 16.3359H223.417L221.816 11.0156L220.214 16.3359H218.331L216.175 7.88281H218.355L219.456 13.2578L221.003 7.88281H222.636L224.175 13.2656Z"
    fill="var(--body-text)" />
  <path d="M232.572 16.3359H230.306V4.33594H232.572V16.3359Z" fill="var(--body-text)" />
  <path
    d="M239.93 16.4922C238.69 16.4922 237.68 16.112 236.898 15.3516C236.122 14.5911 235.734 13.5781 235.734 12.3125V12.0938C235.734 11.2448 235.898 10.487 236.227 9.82031C236.555 9.14844 237.018 8.63281 237.617 8.27344C238.221 7.90885 238.909 7.72656 239.68 7.72656C240.836 7.72656 241.745 8.09115 242.406 8.82031C243.073 9.54948 243.406 10.5833 243.406 11.9219V12.8438H238.023C238.096 13.3958 238.315 13.8385 238.68 14.1719C239.049 14.5052 239.516 14.6719 240.078 14.6719C240.948 14.6719 241.628 14.3568 242.117 13.7266L243.227 14.9688C242.888 15.4479 242.43 15.8229 241.852 16.0938C241.273 16.3594 240.633 16.4922 239.93 16.4922ZM239.672 9.55469C239.224 9.55469 238.859 9.70573 238.578 10.0078C238.302 10.3099 238.125 10.7422 238.047 11.3047H241.188V11.125C241.177 10.625 241.042 10.2396 240.781 9.96875C240.521 9.69271 240.151 9.55469 239.672 9.55469Z"
    fill="var(--body-text)" />
  <path
    d="M245.944 12.0469C245.944 10.7292 246.238 9.67969 246.827 8.89844C247.42 8.11719 248.23 7.72656 249.256 7.72656C250.079 7.72656 250.759 8.03385 251.295 8.64844V4.33594H253.561V16.3359H251.522L251.412 15.4375C250.85 16.1406 250.126 16.4922 249.241 16.4922C248.246 16.4922 247.446 16.1016 246.842 15.3203C246.243 14.5339 245.944 13.4427 245.944 12.0469ZM248.202 12.2109C248.202 13.0026 248.34 13.6094 248.616 14.0312C248.892 14.4531 249.293 14.6641 249.819 14.6641C250.517 14.6641 251.009 14.3698 251.295 13.7812V10.4453C251.014 9.85677 250.527 9.5625 249.834 9.5625C248.746 9.5625 248.202 10.4453 248.202 12.2109Z"
    fill="var(--body-text)" />
  <path
    d="M256.583 12.0469C256.583 10.75 256.89 9.70573 257.505 8.91406C258.124 8.1224 258.958 7.72656 260.005 7.72656C260.932 7.72656 261.653 8.04427 262.169 8.67969L262.262 7.88281H264.309V16.0547C264.309 16.7943 264.14 17.4375 263.802 17.9844C263.468 18.5312 262.997 18.9479 262.387 19.2344C261.778 19.5208 261.065 19.6641 260.247 19.6641C259.627 19.6641 259.023 19.5391 258.434 19.2891C257.846 19.0443 257.401 18.7266 257.098 18.3359L258.098 16.9609C258.661 17.5911 259.343 17.9062 260.145 17.9062C260.744 17.9062 261.21 17.7448 261.544 17.4219C261.877 17.1042 262.044 16.651 262.044 16.0625V15.6094C261.523 16.1979 260.838 16.4922 259.989 16.4922C258.973 16.4922 258.151 16.0964 257.52 15.3047C256.895 14.5078 256.583 13.4531 256.583 12.1406V12.0469ZM258.841 12.2109C258.841 12.9766 258.994 13.5781 259.302 14.0156C259.609 14.4479 260.031 14.6641 260.567 14.6641C261.255 14.6641 261.747 14.4062 262.044 13.8906V10.3359C261.742 9.82031 261.255 9.5625 260.583 9.5625C260.041 9.5625 259.614 9.78385 259.302 10.2266C258.994 10.6693 258.841 11.3307 258.841 12.2109Z"
    fill="var(--body-text)" />
  <path
    d="M271.542 16.4922C270.303 16.4922 269.292 16.112 268.511 15.3516C267.735 14.5911 267.347 13.5781 267.347 12.3125V12.0938C267.347 11.2448 267.511 10.487 267.839 9.82031C268.167 9.14844 268.631 8.63281 269.23 8.27344C269.834 7.90885 270.521 7.72656 271.292 7.72656C272.448 7.72656 273.357 8.09115 274.019 8.82031C274.685 9.54948 275.019 10.5833 275.019 11.9219V12.8438H269.636C269.709 13.3958 269.928 13.8385 270.292 14.1719C270.662 14.5052 271.128 14.6719 271.691 14.6719C272.56 14.6719 273.24 14.3568 273.73 13.7266L274.839 14.9688C274.501 15.4479 274.042 15.8229 273.464 16.0938C272.886 16.3594 272.245 16.4922 271.542 16.4922ZM271.284 9.55469C270.836 9.55469 270.472 9.70573 270.191 10.0078C269.915 10.3099 269.738 10.7422 269.659 11.3047H272.8V11.125C272.79 10.625 272.654 10.2396 272.394 9.96875C272.133 9.69271 271.764 9.55469 271.284 9.55469Z"
    fill="var(--body-text)" />
</svg>