<svg width="16" height="16" viewBox="0 0 16 16" fill="none" xmlns="http://www.w3.org/2000/svg">
<g opacity="0.9">
<path d="M7 3.5C7 3.22386 7.22386 3 7.5 3C8.66262 3 9.78338 3.57627 10.6036 4.39645C11.4237 5.21662 12 6.33738 12 7.5C12 7.77614 11.7761 8 11.5 8C11.2239 8 11 7.77614 11 7.5C11 6.66262 10.5763 5.78338 9.89645 5.10355C9.21662 4.42373 8.33738 4 7.5 4C7.22386 4 7 3.77614 7 3.5Z" fill="#494B51"/>
<path fill-rule="evenodd" clip-rule="evenodd" d="M12.3258 11.8546C13.3664 10.7021 14 9.17505 14 7.5C14 3.91015 11.0899 1 7.5 1C3.91015 1 1 3.91015 1 7.5C1 11.0899 3.91015 14 7.5 14C9.05893 14 10.4897 13.4512 11.6096 12.5363C11.6261 12.5599 11.6449 12.5824 11.666 12.6035L14.7089 15.6464C14.9042 15.8417 15.2208 15.8417 15.416 15.6464C15.6113 15.4511 15.6113 15.1346 15.416 14.9393L12.3731 11.8964C12.358 11.8813 12.3422 11.8674 12.3258 11.8546ZM7.5 13C10.5376 13 13 10.5376 13 7.5C13 4.46243 10.5376 2 7.5 2C4.46243 2 2 4.46243 2 7.5C2 10.5376 4.46243 13 7.5 13Z" fill="#494B51"/>
</g>
</svg>