<svg width="12" height="12" viewBox="0 0 12 12" fill="none" xmlns="http://www.w3.org/2000/svg">
  <path fill-rule="evenodd" clip-rule="evenodd"
    d="M4.39489 0.0101352C4.55241 -0.0320746 4.71433 0.0614101 4.75654 0.218939L5.21511 1.93033C5.25732 2.08786 5.16383 2.24978 5.00631 2.29199C4.84878 2.3342 4.68686 2.24071 4.64465 2.08318L4.18608 0.371794C4.14387 0.214265 4.23736 0.0523449 4.39489 0.0101352ZM8.95282 5.99994C8.95282 7.6308 7.63075 8.95288 5.99989 8.95288C4.36903 8.95288 3.04696 7.6308 3.04696 5.99994C3.04696 4.36908 4.36903 3.04701 5.99989 3.04701C7.63075 3.04701 8.95282 4.36908 8.95282 5.99994ZM7.35509 9.91694C7.31288 9.75941 7.15096 9.66592 6.99343 9.70813C6.8359 9.75034 6.74241 9.91226 6.78462 10.0698L7.24319 11.7812C7.2854 11.9387 7.44732 12.0322 7.60485 11.99C7.76238 11.9478 7.85586 11.7859 7.81365 11.6283L7.35509 9.91694ZM10.3848 1.61519C10.5002 1.73051 10.5002 1.91748 10.3848 2.0328L9.13201 3.28562C9.01669 3.40094 8.82972 3.40094 8.7144 3.28562C8.59908 3.1703 8.59908 2.98333 8.7144 2.86801L9.96723 1.61519C10.0825 1.49987 10.2695 1.49987 10.3848 1.61519ZM3.28551 9.13216C3.40083 9.01684 3.40083 8.82988 3.28551 8.71456C3.1702 8.59924 2.98323 8.59924 2.86791 8.71456L1.61508 9.96738C1.49976 10.0827 1.49976 10.2697 1.61508 10.385C1.7304 10.5003 1.91737 10.5003 2.03269 10.385L3.28551 9.13216ZM11.9898 7.60519C11.9476 7.76272 11.7857 7.85621 11.6281 7.814L9.91675 7.35543C9.75922 7.31322 9.66574 7.1513 9.70795 6.99377C9.75016 6.83624 9.91208 6.74276 10.0696 6.78497L11.781 7.24353C11.9385 7.28574 12.032 7.44766 11.9898 7.60519ZM1.93033 5.21536C2.08786 5.25757 2.24978 5.16409 2.29199 5.00656C2.3342 4.84903 2.24071 4.68711 2.08318 4.6449L0.371794 4.18634C0.214265 4.14413 0.0523449 4.23761 0.0101352 4.39514C-0.0320746 4.55267 0.0614101 4.71459 0.218939 4.7568L1.93033 5.21536Z"
    fill="#6C7288" />
</svg>