<svg width="12" height="12" viewBox="0 0 12 12" fill="none" xmlns="http://www.w3.org/2000/svg">
  <path fill-rule="evenodd" clip-rule="evenodd"
    d="M4.39513 0.0100131C4.55266 -0.0321967 4.71458 0.061288 4.75679 0.218817L5.21535 1.9302C5.25756 2.08773 5.16408 2.24965 5.00655 2.29186C4.84902 2.33407 4.6871 2.24059 4.64489 2.08306L4.18633 0.371672C4.14412 0.214143 4.2376 0.0522228 4.39513 0.0100131ZM8.95306 5.99982C8.95306 7.63068 7.63099 8.95275 6.00013 8.95275C4.36927 8.95275 3.0472 7.63068 3.0472 5.99982C3.0472 4.36896 4.36927 3.04689 6.00013 3.04689C7.63099 3.04689 8.95306 4.36896 8.95306 5.99982ZM7.35533 9.91682C7.31312 9.75929 7.1512 9.6658 6.99367 9.70801C6.83614 9.75022 6.74266 9.91214 6.78487 10.0697L7.24343 11.7811C7.28564 11.9386 7.44756 12.0321 7.60509 11.9899C7.76262 11.9477 7.8561 11.7857 7.81389 11.6282L7.35533 9.91682ZM10.3851 1.61507C10.5004 1.73039 10.5004 1.91736 10.3851 2.03268L9.13225 3.2855C9.01694 3.40082 8.82997 3.40082 8.71465 3.2855C8.59933 3.17018 8.59933 2.98321 8.71465 2.86789L9.96747 1.61507C10.0828 1.49975 10.2698 1.49975 10.3851 1.61507ZM3.28576 9.13204C3.40108 9.01672 3.40108 8.82975 3.28576 8.71443C3.17044 8.59912 2.98347 8.59912 2.86815 8.71443L1.61533 9.96726C1.50001 10.0826 1.50001 10.2695 1.61533 10.3849C1.73065 10.5002 1.91762 10.5002 2.03294 10.3849L3.28576 9.13204ZM11.99 7.60507C11.9478 7.7626 11.7859 7.85608 11.6284 7.81387L9.917 7.35531C9.75947 7.3131 9.66598 7.15118 9.70819 6.99365C9.7504 6.83612 9.91232 6.74264 10.0699 6.78485L11.7812 7.24341C11.9388 7.28562 12.0323 7.44754 11.99 7.60507ZM1.93057 5.21524C2.0881 5.25745 2.25002 5.16397 2.29223 5.00644C2.33444 4.84891 2.24095 4.68699 2.08343 4.64478L0.372038 4.18621C0.214509 4.144 0.0525891 4.23749 0.0103793 4.39502C-0.0318304 4.55255 0.0616541 4.71447 0.219183 4.75668L1.93057 5.21524Z"
    fill="#3863E5" />
</svg>