<svg width="48" height="48" viewBox="0 0 48 48" fill="none" xmlns="http://www.w3.org/2000/svg">
  <mask id="mask0" style="mask-type:alpha" maskUnits="userSpaceOnUse" x="2" y="2" width="44" height="43">
    <path d="M45.4033 2H2.43652V44.9667H45.4033V2Z" fill="#C4C4C4" />
  </mask>
  <g mask="url(#mask0)">
    <path fill-rule="evenodd" clip-rule="evenodd"
      d="M27.8113 7.20947C25.6732 5.33876 22.4838 5.3206 20.3212 7.1629C14.555 12.0752 11.2252 19.2759 11.2252 26.8507V27.6866L3.41309 36.2909V42.0373V44.9669H6.34264H11.2252H14.1548L33.6851 44.9666L36.6147 44.9669H41.4972H44.4268V42.0373V36.2909L36.6147 27.6866V26.6093C36.6147 19.1759 33.4056 12.1043 27.8113 7.20947ZM36.6147 32.0447V42.037L41.4972 42.0373V37.4224L36.6147 32.0447ZM33.6851 26.6093C33.6851 20.0207 30.8408 13.7527 25.8822 9.41426C24.8396 8.50209 23.2796 8.49106 22.221 9.39297C17.1073 13.7494 14.1548 20.1354 14.1548 26.8507V28.8181V42.037H33.6851V28.8181V26.6093ZM6.34264 37.4224L11.2252 32.0447V42.037L6.34264 42.0373V37.4224Z"
      fill="#A5A7B8" />
    <path fill-rule="evenodd" clip-rule="evenodd"
      d="M38.5679 3.95312C39.1072 3.95312 39.5444 3.51592 39.5444 2.97656C39.5444 2.43721 39.1072 2 38.5679 2C38.0285 2 37.5913 2.43721 37.5913 2.97656C37.5913 3.51592 38.0285 3.95312 38.5679 3.95312ZM38.5679 7.85938C39.1072 7.85938 39.5444 7.42217 39.5444 6.88281C39.5444 6.34346 39.1072 5.90625 38.5679 5.90625C38.0285 5.90625 37.5913 6.34346 37.5913 6.88281C37.5913 7.42217 38.0285 7.85938 38.5679 7.85938ZM39.5444 10.7891C39.5444 11.3284 39.1072 11.7656 38.5679 11.7656C38.0285 11.7656 37.5913 11.3284 37.5913 10.7891C37.5913 10.2497 38.0285 9.8125 38.5679 9.8125C39.1072 9.8125 39.5444 10.2497 39.5444 10.7891ZM38.5679 15.6719C39.1072 15.6719 39.5444 15.2347 39.5444 14.6953C39.5444 14.156 39.1072 13.7188 38.5679 13.7188C38.0285 13.7188 37.5913 14.156 37.5913 14.6953C37.5913 15.2347 38.0285 15.6719 38.5679 15.6719ZM45.4038 2.97656C45.4038 3.51592 44.9666 3.95312 44.4272 3.95312C43.8879 3.95312 43.4507 3.51592 43.4507 2.97656C43.4507 2.43721 43.8879 2 44.4272 2C44.9666 2 45.4038 2.43721 45.4038 2.97656ZM44.4272 7.85938C44.9666 7.85938 45.4038 7.42217 45.4038 6.88281C45.4038 6.34346 44.9666 5.90625 44.4272 5.90625C43.8879 5.90625 43.4507 6.34346 43.4507 6.88281C43.4507 7.42217 43.8879 7.85938 44.4272 7.85938ZM45.4038 10.7891C45.4038 11.3284 44.9666 11.7656 44.4272 11.7656C43.8879 11.7656 43.4507 11.3284 43.4507 10.7891C43.4507 10.2497 43.8879 9.8125 44.4272 9.8125C44.9666 9.8125 45.4038 10.2497 45.4038 10.7891ZM44.4272 15.6719C44.9666 15.6719 45.4038 15.2347 45.4038 14.6953C45.4038 14.156 44.9666 13.7188 44.4272 13.7188C43.8879 13.7188 43.4507 14.156 43.4507 14.6953C43.4507 15.2347 43.8879 15.6719 44.4272 15.6719Z"
      fill="#FE5E00" />
    <path
      d="M21.4785 26.4131C21.4785 25.0647 22.5716 23.9717 23.9199 23.9717C25.2683 23.9717 26.3613 25.0647 26.3613 26.4131V43.5029H21.4785V26.4131Z"
      stroke="#5879DA" stroke-width="3" />
  </g>
</svg>