<svg
  xmlns="http://www.w3.org/2000/svg"
  width="24"
  height="24"
  viewBox="0 0 24 24"
  fill="none"
><path
    opacity="0.9"
    fill-rule="evenodd"
    clip-rule="evenodd"
    d="M2 12C2 6.47715 6.47715 2 12 2C17.5228 2 22 6.47715 22 12C22 17.5228 17.5228 22 12 22C6.47715 22 2 17.5228 2 12ZM12.838 13.1845C12.8238 13.639 12.4513 14 11.9966 14C11.5415 14 11.1689 13.6383 11.1552 13.1834L11.0299 8.9989C11.0135 8.45213 11.4523 8 11.9993 8C12.5469 8 12.9858 8.45291 12.9687 9.00016L12.838 13.1845ZM13 16C13 16.5523 12.5523 17 12 17C11.4477 17 11 16.5523 11 16C11 15.4477 11.4477 15 12 15C12.5523 15 13 15.4477 13 16Z"
    fill="#4667C8"
  /></svg>
