<svg width="24" height="24" viewBox="0 0 24 24" fill="none" xmlns="http://www.w3.org/2000/svg">
  <g opacity="0.9">
    <path
      d="M20.7979 3.16181C22.36 4.7239 22.36 7.25656 20.7979 8.81866L17.9695 11.6471C17.1313 12.4853 16.0127 12.8737 14.9166 12.8124C14.6409 12.797 14.4299 12.561 14.4453 12.2853C14.4607 12.0096 14.6967 11.7985 14.9724 11.814C15.7964 11.86 16.6338 11.5686 17.2624 10.94L20.0908 8.11155C21.2624 6.93998 21.2624 5.04049 20.0908 3.86891C18.9192 2.69734 17.0197 2.69734 15.8482 3.86891L13.0197 6.69734C12.3911 7.32596 12.0997 8.16333 12.1458 8.9873C12.1612 9.26301 11.9502 9.49901 11.6745 9.51443C11.3987 9.52984 11.1627 9.31882 11.1473 9.04311C11.0861 7.94698 11.4744 6.82847 12.3126 5.99023L15.1411 3.16181C16.7032 1.59971 19.2358 1.59971 20.7979 3.16181Z"
      fill="#2DBAE6" />
    <path
      d="M3.12133 20.8382C1.55924 19.2761 1.55924 16.7434 3.12133 15.1813L5.94976 12.3529C6.78799 11.5147 7.90651 11.1263 9.00264 11.1876C9.27835 11.203 9.48936 11.439 9.47395 11.7147C9.45854 11.9904 9.22254 12.2015 8.94683 12.186C8.12285 12.14 7.28548 12.4314 6.65687 13.06L3.82844 15.8884C2.65687 17.06 2.65687 18.9595 3.82844 20.1311C5.00001 21.3027 6.89951 21.3027 8.07108 20.1311L10.8995 17.3027C11.5281 16.674 11.8195 15.8367 11.7735 15.0127C11.7581 14.737 11.9691 14.501 12.2448 14.4856C12.5205 14.4702 12.7565 14.6812 12.7719 14.9569C12.8332 16.053 12.4448 17.1715 11.6066 18.0098L8.77819 20.8382C7.21609 22.4003 4.68343 22.4003 3.12133 20.8382Z"
      fill="#2DBAE6" />
    <path
      d="M7.7175 15.5351C7.52224 15.7304 7.52224 16.047 7.7175 16.2422C7.91277 16.4375 8.22935 16.4375 8.42461 16.2422L16.2028 8.46405C16.398 8.26879 16.398 7.95221 16.2028 7.75694C16.0075 7.56168 15.6909 7.56168 15.4957 7.75694L7.7175 15.5351Z"
      fill="#2DBAE6" />
  </g>
</svg>