<svg width="16" height="16" viewBox="0 0 16 16" fill="none" xmlns="http://www.w3.org/2000/svg">
<path fill-rule="evenodd" clip-rule="evenodd" d="M4.12481 7.99985C4.12481 10.1402 5.8597 11.875 7.99979 11.875C10.1399 11.875 11.8748 10.1402 11.8748 7.99985C11.8748 5.8602 10.1399 4.12528 7.99979 4.12528C5.8597 4.12528 4.12481 5.8602 4.12481 7.99985ZM2.93326 4.10331L1.69221 2.99418L2.99402 1.69259L4.10318 2.93364C4.33025 2.75852 4.56629 2.60059 4.80972 2.46043L4.08853 0.961601L5.78871 0.256909L6.33831 1.82784C6.61347 1.75386 6.89218 1.69909 7.17275 1.66268L7.07984 0H8.92002L8.82668 1.66268C9.10782 1.69909 9.38639 1.75429 9.66112 1.82784L10.2109 0.256909L11.9116 0.961601L11.1899 2.46043C11.4331 2.60102 11.6696 2.7588 11.8968 2.93408L13.0063 1.69259L14.3074 2.9939L13.0665 4.10331C13.2414 4.33046 13.3995 4.56685 13.5397 4.81017L15.0385 4.08857L15.7429 5.78911L14.1725 6.33891C14.246 6.61344 14.301 6.89246 14.3375 7.17292L16 7.08001V8.92071L14.3375 8.82737C14.301 9.10783 14.246 9.38684 14.1721 9.66152L15.7429 10.2116L15.0385 11.9119L13.5397 11.1898C13.3991 11.4334 13.2412 11.6695 13.0663 11.897L14.3074 13.0065L13.0063 14.3077L11.8968 13.0664C11.6696 13.2415 11.4331 13.3994 11.1899 13.54L11.9116 15.0387L10.2109 15.7431L9.66112 14.1726C9.38639 14.2461 9.10782 14.3012 8.82668 14.3376L8.92002 16H7.07984L7.17275 14.3376C6.89218 14.3012 6.61347 14.2461 6.33831 14.1726L5.78871 15.7431L4.08825 15.0387L4.80972 13.54C4.56629 13.3994 4.33025 13.2415 4.10318 13.0664L2.99402 14.3077L1.69221 13.0065L2.93326 11.8967C2.75841 11.6695 2.60034 11.4334 2.45992 11.1898L0.961061 11.9114L0.256947 10.2109L1.82737 9.66152C1.75353 9.38684 1.69861 9.10783 1.66233 8.82737L0 8.92071V7.08001L1.66233 7.17292C1.69861 6.89246 1.75353 6.61344 1.82737 6.33891L0.256947 5.78911L0.961061 4.08857L2.45992 4.81017C2.60034 4.56685 2.75841 4.33046 2.93326 4.10331Z" fill="#FA772E"/>
</svg>
