<svg xmlns="http://www.w3.org/2000/svg" version="1.1" xmlns:xlink="http://www.w3.org/1999/xlink" xmlns:svgjs="http://svgjs.com/svgjs" width="320" height="320"><svg width="320" height="320" viewBox="0 0 320 320" fill="none" xmlns="http://www.w3.org/2000/svg">
<path fill-rule="evenodd" clip-rule="evenodd" d="M14.6447 14.6447C24.0215 5.26784 36.7392 0 50 0H240C245.304 0 250.391 2.10713 254.142 5.85786C257.893 9.60861 260 14.6957 260 20V240C260 245.304 257.893 250.391 254.142 254.142C250.391 257.893 245.304 260 240 260V300H250C255.523 300 260 304.477 260 310C260 315.523 255.523 320 250 320H40C29.3913 320 19.2172 315.786 11.7157 308.284C4.21427 300.783 0 290.609 0 280V50C0 36.7392 5.26784 24.0215 14.6447 14.6447ZM220 300V260H40C34.6957 260 29.6086 262.107 25.8579 265.858C22.1071 269.609 20 274.696 20 280C20 285.304 22.1071 290.391 25.8579 294.142C29.6086 297.893 34.6957 300 40 300H220ZM240 240V20H50C42.0435 20 34.4129 23.1607 28.7868 28.7868C23.1607 34.4129 20 42.0435 20 50V245.359C26.029 241.878 32.9177 240 40 240H240Z" fill="#363944"></path>
<path d="M220 260V300H40C34.6957 300 29.6086 297.893 25.8579 294.142C22.1071 290.391 20 285.304 20 280C20 274.696 22.1071 269.609 25.8579 265.858C29.6086 262.107 34.6957 260 40 260H220Z" fill="#EEEFF1"></path>
<path d="M240 240V20H50C42.0435 20 34.4129 23.1607 28.7868 28.7868C23.1607 34.4129 20 42.0435 20 50V245.359C26.029 241.878 32.9177 240 40 240H240Z" fill="#363944"></path>
<path d="M320 140C320 217.32 257.32 280 180 280C102.68 280 40 217.32 40 140C40 62.6801 102.68 0 180 0C257.32 0 320 62.6801 320 140ZM141.795 140C141.795 161.1 158.9 178.205 180 178.205C201.1 178.205 218.205 161.1 218.205 140C218.205 118.9 201.1 101.795 180 101.795C158.9 101.795 141.795 118.9 141.795 140Z" fill="#363944"></path>
<path fill-rule="evenodd" clip-rule="evenodd" d="M121.872 139.998C121.872 172.103 147.895 198.125 179.997 198.125C212.098 198.125 238.121 172.103 238.121 139.998C238.121 107.903 212.098 81.8791 179.997 81.8791C147.895 81.8791 121.872 107.903 121.872 139.998ZM103.999 81.5497L85.3831 64.9128L104.91 45.3889L121.548 64.0046C124.954 61.3777 128.494 59.0088 132.146 56.9064L121.328 34.424L146.831 23.8536L155.075 47.4175C159.202 46.3078 163.383 45.4864 167.591 44.9402L166.198 20H193.8L192.4 44.9402C196.617 45.4864 200.796 46.3143 204.917 47.4175L213.163 23.8536L238.674 34.424L227.848 56.9064C231.497 59.0153 235.044 61.3821 238.452 64.0111L255.094 45.3889L274.61 64.9084L255.997 81.5497C258.622 84.9568 260.993 88.5027 263.095 92.1526L285.578 81.3286L296.144 106.837L272.587 115.084C273.691 119.202 274.514 123.387 275.063 127.594L300 126.2V153.811L275.063 152.411C274.514 156.617 273.691 160.803 272.581 164.923L296.144 173.174L285.578 198.678L263.095 187.847C260.986 191.502 258.617 195.043 255.995 198.455L274.61 215.098L255.094 234.615L238.452 215.995C235.044 218.622 231.497 220.991 227.848 223.1L238.674 245.58L213.163 256.146L204.917 232.589C200.796 233.692 196.617 234.518 192.4 235.064L193.8 260H166.198L167.591 235.064C163.383 234.518 159.202 233.692 155.075 232.589L146.831 256.146L121.324 245.58L132.146 223.1C128.494 220.991 124.954 218.622 121.548 215.995L104.91 234.615L85.3831 215.098L103.999 198.45C101.376 195.043 99.0052 191.502 96.8988 187.847L74.4159 198.671L63.8542 173.163L87.4105 164.923C86.3029 160.803 85.4792 156.617 84.935 152.411L60 153.811V126.2L84.935 127.594C85.4792 123.387 86.3029 119.202 87.4105 115.084L63.8542 106.837L74.4159 81.3286L96.8988 92.1526C99.0052 88.5027 101.376 84.9568 103.999 81.5497Z" fill="#FA772E"></path>
</svg><style>@media (prefers-color-scheme: light) { :root { filter: none; } }
@media (prefers-color-scheme: dark) { :root { filter: none; } }
</style></svg>