<svg aria-hidden="true" style="position: absolute; width: 0; height: 0; overflow: hidden;" version="1.1"
  xmlns="http://www.w3.org/2000/svg" xmlns:xlink="http://www.w3.org/1999/xlink">
  <defs>
    <symbol id="icon-getting-started" viewBox="0 0 24 24">
      <title>getting-started</title>
      <path
        d="M12.334 2.489a.5.5 0 00-.675-.003L2.293 11H4a.5.5 0 01.5.5v9a.5.5 0 00.5.5h4v-7.5a1.5 1.5 0 011.5-1.5h3a1.5 1.5 0 011.5 1.5V21h4a.5.5 0 00.5-.5v-9a.5.5 0 01.5-.5h1.727l-2.248-2.087A1.5 1.5 0 0119 7.814V5h-3.359a1.5 1.5 0 01-1.017-.398l-2.29-2.113zm-1.348-.743a1.5 1.5 0 012.026.008l2.29 2.113A.5.5 0 0015.64 4H19.5a.5.5 0 01.5.5v3.314a.5.5 0 00.16.366l3.18 2.954A.5.5 0 0123 12h-2.5v8.5A1.5 1.5 0 0119 22h-4.5a.5.5 0 01-.5-.5v-8a.5.5 0 00-.5-.5h-3a.5.5 0 00-.5.5v8a.5.5 0 01-.5.5H5a1.5 1.5 0 01-1.5-1.5V12H1a.5.5 0 01-.336-.87l10.322-9.384z">
      </path>
    </symbol>
    <symbol id="icon-messaging" viewBox="0 0 24 24">
      <title>messaging</title>
      <path clip-rule="evenodd"
        d="M7.5 8C6.67157 8 6 8.67157 6 9.5C6 10.3284 6.67157 11 7.5 11H16.5C17.3284 11 18 10.3284 18 9.5C18 8.67157 17.3284 8 16.5 8H7.5ZM16.5 9H7.5C7.22386 9 7 9.22386 7 9.5C7 9.77614 7.22386 10 7.5 10H16.5C16.7761 10 17 9.77614 17 9.5C17 9.22386 16.7761 9 16.5 9Z"
        fill="#3955A7" />
      <path clip-rule="evenodd"
        d="M6 14.5C6 13.6716 6.67157 13 7.5 13H13.5C14.3284 13 15 13.6716 15 14.5C15 15.3284 14.3284 16 13.5 16H7.5C6.67157 16 6 15.3284 6 14.5ZM7.5 14H13.5C13.7761 14 14 14.2239 14 14.5C14 14.7761 13.7761 15 13.5 15H7.5C7.22386 15 7 14.7761 7 14.5C7 14.2239 7.22386 14 7.5 14Z"
        fill="#3955A7" />
      <path clip-rule="evenodd"
        d="M5 5C3.34315 5 2 6.34315 2 8V21.0956C2 21.9014 2.90435 22.3763 3.56773 21.9188L7.45795 19.236C7.62489 19.1208 7.82288 19.0592 8.02567 19.0592H19C20.6569 19.0592 22 17.716 22 16.0592V8C22 6.34315 20.6569 5 19 5H5ZM19 6H5C3.89543 6 3 6.89543 3 8V21.0956L6.89022 18.4127C7.2241 18.1825 7.6201 18.0592 8.02567 18.0592H19C20.1046 18.0592 21 17.1637 21 16.0592V8C21 6.89543 20.1046 6 19 6Z"
        fill="#3955A7" />
    </symbol>
    <symbol id="icon-bots" viewBox="0 0 24 24">
      <title>bots</title>
      <path clip-rule="evenodd"
        d="M9 10.5C9 11.3284 8.32843 12 7.5 12C6.67157 12 6 11.3284 6 10.5C6 9.67157 6.67157 9 7.5 9C8.32843 9 9 9.67157 9 10.5ZM8 10.5C8 10.7761 7.77614 11 7.5 11C7.22386 11 7 10.7761 7 10.5C7 10.2239 7.22386 10 7.5 10C7.77614 10 8 10.2239 8 10.5Z"
        fill="#3955A7" />
      <path clip-rule="evenodd"
        d="M16.5 12C17.3284 12 18 11.3284 18 10.5C18 9.67157 17.3284 9 16.5 9C15.6716 9 15 9.67157 15 10.5C15 11.3284 15.6716 12 16.5 12ZM16.5 11C16.7761 11 17 10.7761 17 10.5C17 10.2239 16.7761 10 16.5 10C16.2239 10 16 10.2239 16 10.5C16 10.7761 16.2239 11 16.5 11Z"
        fill="#3955A7" />
      <path
        d="M9.5 14C9.22386 14 9 14.2239 9 14.5C9 14.7761 9.22386 15 9.5 15H14.5C14.7761 15 15 14.7761 15 14.5C15 14.2239 14.7761 14 14.5 14H9.5Z"
        fill="#3955A7" />
      <path clip-rule="evenodd"
        d="M12.5 2.91465C13.0826 2.70873 13.5 2.15311 13.5 1.5C13.5 0.671573 12.8284 0 12 0C11.1716 0 10.5 0.671573 10.5 1.5C10.5 2.15311 10.9174 2.70873 11.5 2.91465V5H5C3.34315 5 2 6.34315 2 8V10C1.44772 10 1 10.4477 1 11V13C1 13.5523 1.44772 14 2 14V16C2 17.6569 3.34315 19 5 19H19C20.6569 19 22 17.6569 22 16V14C22.5523 14 23 13.5523 23 13V11C23 10.4477 22.5523 10 22 10V8C22 6.34315 20.6569 5 19 5H12.5V2.91465ZM12 2C12.2761 2 12.5 1.77614 12.5 1.5C12.5 1.22386 12.2761 1 12 1C11.7239 1 11.5 1.22386 11.5 1.5C11.5 1.77614 11.7239 2 12 2ZM3 8C3 6.89543 3.89543 6 5 6H19C20.1046 6 21 6.89543 21 8V16C21 17.1046 20.1046 18 19 18H5C3.89543 18 3 17.1046 3 16V8Z"
        fill="#3955A7" />
    </symbol>
    <symbol id="icon-contact-center-management" viewBox="0 0 24 24">
      <title>contact center management</title>
      <path clip-rule="evenodd"
        d="M13.6437 12.0018C14.4754 11.2689 15 10.1957 15 9C15 6.79086 13.2091 5 11 5C8.79086 5 7 6.79086 7 9C7 10.1957 7.52463 11.2689 8.35627 12.0018C5.38513 12.0781 3 14.5105 3 17.5V19.5C3 19.7761 3.22386 20 3.5 20C3.77614 20 4 19.7761 4 19.5V17.5C4 15.0147 6.01472 13 8.5 13H13.5C15.9853 13 18 15.0147 18 17.5V19.5C18 19.7761 18.2239 20 18.5 20C18.7761 20 19 19.7761 19 19.5V17.5C19 14.5105 16.6149 12.0781 13.6437 12.0018ZM14 9C14 10.6569 12.6569 12 11 12C9.34315 12 8 10.6569 8 9C8 7.34315 9.34315 6 11 6C12.6569 6 14 7.34315 14 9Z"
        fill="#3955A7" />
      <path
        d="M15.5 5.5C15.5 5.22386 15.7239 5 16 5C17.933 5 19.5 6.567 19.5 8.5C19.5 9.61822 18.9756 10.614 18.1593 11.2547C20.3859 11.9584 22 14.0407 22 16.5V18C22 18.2761 21.7761 18.5 21.5 18.5C21.2239 18.5 21 18.2761 21 18V16.5C21 14.0147 18.9853 12 16.5 12C16.4529 12 16.4073 11.9935 16.364 11.9813C16.2444 11.9937 16.1229 12 16 12C15.7239 12 15.5 11.7761 15.5 11.5C15.5 11.2239 15.7239 11 16 11C17.3807 11 18.5 9.88071 18.5 8.5C18.5 7.11929 17.3807 6 16 6C15.7239 6 15.5 5.77614 15.5 5.5Z"
        fill="#3955A7" />

    </symbol>
    <symbol id="icon-agent-and-manager-workspaces" viewBox="0 0 24 24">
      <title>agent and manager workspaces</title>
      <path clip-rule="evenodd"
        d="M18.0541 1.7737C18.1791 1.52746 18.48 1.42915 18.7263 1.55412C21.7486 3.08801 22.9823 6.602 22.9998 9.97955C22.9999 9.98634 23 9.99316 23 9.99998V12C23 12.5523 22.5523 13 22 13C21.4477 13 21 12.5523 21 12V9.99998C21 9.46184 21.4251 9.02299 21.9578 9.00086C21.7277 6.16949 20.5503 3.60126 18.2737 2.44585C18.0275 2.32088 17.9291 2.01994 18.0541 1.7737ZM10.5 1.99998C5.80558 1.99998 2 5.80556 2 10.5V13.5C2 17.9395 5.40345 21.584 9.74349 21.9668C9.82535 21.9884 9.91132 22 10 22H10.5H11H12C12.5523 22 13 21.5523 13 21C13 20.4477 12.5523 20 12 20H10C9.49794 20 9.08231 20.37 9.01086 20.8522C6.05263 20.2562 3.72465 17.9196 3.1414 14.9568C3.2563 14.985 3.37641 15 3.5 15C4.32843 15 5 14.3284 5 13.5V10.5C5 9.67156 4.32843 8.99998 3.5 8.99998C3.37641 8.99998 3.25631 9.01493 3.1414 9.04312C3.81955 5.59829 6.85634 2.99998 10.5 2.99998H11.5C15.1437 2.99998 18.1805 5.59829 18.8586 9.04312C18.7437 9.01494 18.6236 8.99998 18.5 8.99998C17.6716 8.99998 17 9.67156 17 10.5V13.5C17 14.3284 17.6716 15 18.5 15C19.3284 15 20 14.3284 20 13.5V12V10.5C20 5.80556 16.1944 1.99998 11.5 1.99998H10.5Z"
        fill="#3955A7" />
    </symbol>
    <symbol id="icon-data-and-reporting" viewBox="0 0 24 24">
      <title>data and reporting</title>
      <path clip-rule="evenodd"
        d="M7.5 7C6.67157 7 6 7.67157 6 8.5V13.5C6 13.7761 6.22386 14 6.5 14H8.5C8.77614 14 9 13.7761 9 13.5V8.5C9 7.67157 8.32843 7 7.5 7ZM7 8.5C7 8.22386 7.22386 8 7.5 8C7.77614 8 8 8.22386 8 8.5V13H7V8.5Z"
        fill="#3955A7" />
      <path clip-rule="evenodd"
        d="M10 6.5C10 5.67157 10.6716 5 11.5 5C12.3284 5 13 5.67157 13 6.5V13.5C13 13.7761 12.7761 14 12.5 14H10.5C10.2239 14 10 13.7761 10 13.5V6.5ZM11.5 6C11.2239 6 11 6.22386 11 6.5V13H12V6.5C12 6.22386 11.7761 6 11.5 6Z"
        fill="#3955A7" />
      <path clip-rule="evenodd"
        d="M15.5 9C14.6716 9 14 9.67157 14 10.5V13.5C14 13.7761 14.2239 14 14.5 14H16.5C16.7761 14 17 13.7761 17 13.5V10.5C17 9.67157 16.3284 9 15.5 9ZM15 10.5C15 10.2239 15.2239 10 15.5 10C15.7761 10 16 10.2239 16 10.5V13H15V10.5Z"
        fill="#3955A7" />
      <path clip-rule="evenodd"
        d="M5.5 1C4.11929 1 3 2.11929 3 3.5V20.5C3 21.8807 4.11929 23 5.5 23H18.5C19.8807 23 21 21.8807 21 20.5V6.33724L15.9418 1.18538C15.8254 1.0668 15.6662 1 15.5 1H5.5ZM4 3.5C4 2.67157 4.67157 2 5.5 2H15V4.54167C15 5.92238 16.1193 7.04167 17.5 7.04167H20V20.5C20 21.3284 19.3284 22 18.5 22H5.5C4.67157 22 4 21.3284 4 20.5V3.5ZM19.3084 6.04167L16 2.67202V4.54167C16 5.37009 16.6716 6.04167 17.5 6.04167H19.3084Z"
        fill="#3955A7" />
    </symbol>
    <symbol id="icon-marketplace-solutions" viewBox="0 0 24 24">
      <title>marketplace solutions</title>
      <path clip-rule="evenodd"
        d="M11.9875 5.91408C11.9908 6.11497 11.9941 6.31131 11.9941 6.50001C11.9941 6.77615 11.7703 7.00001 11.4941 7C11.218 6.99999 10.9941 6.77613 10.9941 6.49999C10.9941 6.34767 10.991 6.17799 10.9876 5.99562C10.982 5.69181 10.9758 5.35265 10.9823 5H8V9C8 9.27614 7.77614 9.5 7.5 9.5C7.22386 9.5 7 9.27614 7 9V4.5C7 4.22386 7.22386 4 7.5 4H11.044C11.0756 3.72815 11.1215 3.45998 11.1877 3.20482C11.3353 2.63577 11.5943 2.0759 12.0588 1.65831C12.5324 1.23245 13.1692 1 13.98 1C14.7908 1 15.4275 1.23245 15.9012 1.65831C16.3657 2.07591 16.6246 2.63578 16.7722 3.20482C16.8384 3.45998 16.8843 3.72816 16.9159 4H20.5C20.7761 4 21 4.22386 21 4.5V18.5C21 18.7761 20.7761 19 20.5 19H14.5C14.2239 19 14 18.7761 14 18.5C14 18.2239 14.2239 18 14.5 18H20V5H16.9776C16.9841 5.35266 16.9778 5.6917 16.9722 5.99551C16.9689 6.17793 16.9657 6.34765 16.9657 6.5C16.9657 6.77614 16.7419 7 16.4657 7C16.1896 7 15.9657 6.77614 15.9657 6.5C15.9657 6.3113 15.969 6.11497 15.9724 5.91409C15.9774 5.61607 15.9825 5.30802 15.9774 5H11.9825C11.9773 5.30798 11.9825 5.61609 11.9875 5.91408ZM15.9093 4H12.0506C12.0761 3.8134 12.1102 3.6312 12.1557 3.4559C12.2744 2.99816 12.4594 2.64285 12.7273 2.40196C12.9861 2.16934 13.3703 2 13.98 2C14.5896 2 14.9739 2.16934 15.2326 2.40196C15.5005 2.64284 15.6855 2.99815 15.8042 3.45589C15.8497 3.63119 15.8838 3.8134 15.9093 4Z"
        fill="#3955A7" />
      <path clip-rule="evenodd"
        d="M6.78569 11C5.96597 11 5.29285 11.6276 5.22067 12.4286H3C2.44772 12.4286 2 12.8763 2 13.4286V16.9109L2.66663 16.6753C2.72557 16.6544 2.78948 16.6429 2.85716 16.6429C3.17276 16.6429 3.42859 16.8987 3.42859 17.2143C3.42859 17.5299 3.17276 17.7857 2.85716 17.7857C2.78948 17.7857 2.72557 17.7742 2.66663 17.7533L2 17.5177V21C2 21.5523 2.44771 22 3 22H6.48231L6.24671 21.3334C6.22588 21.2744 6.21433 21.2105 6.21433 21.1429C6.21433 20.8273 6.47017 20.5714 6.78576 20.5714C7.10135 20.5714 7.35719 20.8273 7.35719 21.1429C7.35719 21.2105 7.34563 21.2744 7.3248 21.3334L7.08921 22H10.5714C11.1237 22 11.5714 21.5523 11.5714 21V18.7793C12.3724 18.7071 13 18.034 13 17.2143C13 16.3946 12.3724 15.7214 11.5714 15.6493V13.4286C11.5714 12.8763 11.1237 12.4286 10.5714 12.4286H8.35071C8.27854 11.6276 7.60541 11 6.78569 11ZM6.21426 12.5714C6.21426 12.2558 6.4701 12 6.78569 12C7.10128 12 7.35712 12.2558 7.35712 12.5714C7.35712 12.6391 7.34557 12.703 7.32474 12.7619L7.08912 13.4286H10.5714V16.9109L11.2381 16.6753C11.297 16.6544 11.3609 16.6429 11.4286 16.6429C11.7442 16.6429 12 16.8987 12 17.2143C12 17.5299 11.7442 17.7857 11.4286 17.7857C11.3609 17.7857 11.297 17.7742 11.2381 17.7533L10.5714 17.5177V21H8.35078C8.27859 20.1991 7.60547 19.5714 6.78576 19.5714C5.96604 19.5714 5.29292 20.1991 5.22074 21H3V18.7793C3.80094 18.7072 4.42859 18.034 4.42859 17.2143C4.42859 16.3946 3.80094 15.7214 3 15.6493V13.4286H6.48226L6.24665 12.7619C6.22582 12.703 6.21426 12.6391 6.21426 12.5714Z"
        fill="#3955A7" />
    </symbol>
    <symbol id="icon-settings" viewBox="0 0 24 24">
      <title>settings</title>
      <path clip-rule="evenodd"
        d="M8.99723 2.5C8.99723 2.22386 9.22109 2 9.49723 2H14.4972C14.7734 2 14.9972 2.22386 14.9972 2.5V5.67376C15.3394 5.83631 15.6663 6.02575 15.975 6.23933L18.7245 4.65195C18.9636 4.51388 19.2694 4.59581 19.4075 4.83496L21.9075 9.16509C21.9738 9.27993 21.9917 9.41641 21.9574 9.5445C21.9231 9.67259 21.8393 9.7818 21.7245 9.8481L18.9748 11.4356C18.9897 11.6219 18.9972 11.8101 18.9972 12C18.9972 12.1899 18.9897 12.3781 18.9748 12.5644L21.7245 14.1519C21.9636 14.29 22.0455 14.5958 21.9075 14.835L19.4075 19.1651C19.3412 19.2799 19.232 19.3637 19.1039 19.3981C18.9758 19.4324 18.8393 19.4144 18.7245 19.3481L15.975 17.7607C15.6663 17.9743 15.3394 18.1637 14.9972 18.3262V21.5C14.9972 21.7761 14.7734 22 14.4972 22H9.49723C9.22109 22 8.99723 21.7761 8.99723 21.5V18.3262C8.65504 18.1637 8.3282 17.9743 8.01945 17.7607L5.26998 19.3481C5.15514 19.4144 5.01866 19.4324 4.89057 19.3981C4.76248 19.3637 4.65327 19.2799 4.58697 19.1651L2.08697 14.835C2.02066 14.7201 2.0027 14.5836 2.03702 14.4556C2.07134 14.3275 2.15514 14.2183 2.26998 14.1519L5.01968 12.5644C5.0048 12.3781 4.99723 12.1899 4.99723 12C4.99723 11.8101 5.0048 11.6219 5.01968 11.4356L2.26998 9.8481C2.03083 9.71003 1.9489 9.40423 2.08697 9.16509L4.58697 4.83496C4.72504 4.59581 5.03084 4.51388 5.26998 4.65195L8.01942 6.23933C8.32818 6.02575 8.65502 5.83631 8.99723 5.67376V2.5ZM9.99723 3V5.99816C9.99723 6.19996 9.87593 6.38197 9.68968 6.45964C9.21015 6.65962 8.76192 6.92016 8.35459 7.23185C8.19418 7.3546 7.97567 7.36878 7.80074 7.26778L5.20299 5.76797L3.20299 9.23207L5.8004 10.7317C5.97502 10.8325 6.07199 11.0283 6.04634 11.2283C6.01395 11.4808 5.99723 11.7383 5.99723 12C5.99723 12.2617 6.01396 12.5193 6.04634 12.7717C6.072 12.9717 5.97503 13.1675 5.80041 13.2684L3.20299 14.768L5.20299 18.2321L7.80078 16.7322C7.9757 16.6313 8.19421 16.6454 8.35462 16.7682C8.76194 17.0799 9.21016 17.3404 9.68968 17.5404C9.87593 17.618 9.99723 17.8 9.99723 18.0018V21H13.9972V18.0018C13.9972 17.8 14.1185 17.618 14.3048 17.5404C14.7843 17.3404 15.2325 17.0799 15.6398 16.7682C15.8002 16.6454 16.0188 16.6313 16.1937 16.7323L18.7915 18.2321L20.7915 14.768L18.1941 13.2684C18.0194 13.1675 17.9225 12.9717 17.9481 12.7717C17.9805 12.5193 17.9972 12.2617 17.9972 12C17.9972 11.7383 17.9805 11.4808 17.9481 11.2283C17.9225 11.0283 18.0194 10.8325 18.1941 10.7317L20.7915 9.23207L18.7915 5.76797L16.1937 7.26778C16.0188 7.36877 15.8003 7.3546 15.6399 7.23185C15.2325 6.92016 14.7843 6.65962 14.3048 6.45964C14.1185 6.38197 13.9972 6.19996 13.9972 5.99816V3H9.99723ZM11.9972 10C10.8926 10 9.99721 10.8954 9.99721 12C9.99721 13.1046 10.8926 14 11.9972 14C13.1018 14 13.9972 13.1046 13.9972 12C13.9972 10.8954 13.1018 10 11.9972 10ZM8.99721 12C8.99721 10.3431 10.3404 9 11.9972 9C13.6541 9 14.9972 10.3431 14.9972 12C14.9972 13.6569 13.6541 15 11.9972 15C10.3404 15 8.99721 13.6569 8.99721 12Z"
        fill="#3955A7" />
    </symbol>
    <symbol id="icon-security" viewBox="0 0 24 24">
      <title>security</title>
      <path
        d="M16.8536 8.85343C17.0489 8.65817 17.0489 8.34159 16.8536 8.14632C16.6584 7.95106 16.3418 7.95106 16.1465 8.14632L11.0001 13.2928L8.85363 11.1463C8.65837 10.9511 8.34179 10.9511 8.14652 11.1463C7.95126 11.3416 7.95126 11.6582 8.14652 11.8534L10.293 13.9999C10.6835 14.3904 11.3167 14.3904 11.7072 13.9999L16.8536 8.85343Z"
        fill="#3955A7" />
      <path clip-rule="evenodd"
        d="M12.4138 2.13883C12.1509 2.01932 11.8492 2.01932 11.5862 2.13883L4.58626 5.32065C4.22649 5.48419 3.99874 5.84597 4.00099 6.23713C4.0217 9.82915 4.3904 12.4402 5.51251 14.7831C6.63299 17.1226 8.4799 19.1425 11.3498 21.6029C11.7225 21.9224 12.2776 21.9224 12.6503 21.6029C15.5202 19.1425 17.3671 17.1226 18.4876 14.7831C19.6097 12.4402 19.9784 9.82915 19.9991 6.23713C20.0014 5.84597 19.7736 5.48419 19.4139 5.32065L12.4138 2.13883ZM12 3.04919L19.0001 6.23102C18.9797 9.76715 18.6137 12.2047 17.5857 14.3511C16.5562 16.5006 14.8369 18.4109 12.0008 20.8425C12.0011 20.8425 12.0006 20.8425 12.0008 20.8425C12.0005 20.8425 11.9995 20.8425 11.9993 20.8425C9.16317 18.4109 7.4439 16.5006 6.41441 14.3511C5.38638 12.2047 5.02137 9.7675 5.00098 6.23137L12 3.04919ZM11.9993 20.8425C11.9977 20.8414 11.9979 20.8424 11.9993 20.8425L12 20.8432L12.0008 20.8425C12.0022 20.8424 12.0024 20.8414 12.0008 20.8425L12 20.8432L11.9993 20.8425Z"
        fill="#3955A7" />
    </symbol>
    <symbol id="icon-developer-tools" viewBox="0 0 24 24">
      <title>developer tools</title>
      <path
        d="M14.9667 5.67962C15.0658 5.42189 14.9372 5.13259 14.6795 5.03346C14.4218 4.93433 14.1325 5.06291 14.0333 5.32065L9.03334 18.3206C8.93421 18.5784 9.06279 18.8677 9.32052 18.9668C9.57826 19.0659 9.86756 18.9374 9.96669 18.6796L14.9667 5.67962Z"
        fill="#3955A7" />
      <path
        d="M6.76205 5.07424C6.99723 5.21897 7.07055 5.52694 6.92583 5.76212L3.08709 12.0001L6.92583 18.238C7.07055 18.4732 6.99723 18.7812 6.76205 18.9259C6.52687 19.0706 6.2189 18.9973 6.07417 18.7621L2.07417 12.2621C1.97528 12.1014 1.97528 11.8987 2.07417 11.738L6.07417 5.23802C6.2189 5.00284 6.52687 4.92952 6.76205 5.07424Z"
        fill="#3955A7" />
      <path
        d="M17.238 5.07424C17.0028 5.21897 16.9294 5.52694 17.0742 5.76212L20.9129 12.0001L17.0742 18.238C16.9294 18.4732 17.0028 18.7812 17.238 18.9259C17.4731 19.0706 17.7811 18.9973 17.9258 18.7621L21.9258 12.2621C22.0247 12.1014 22.0247 11.8987 21.9258 11.738L17.9258 5.23802C17.7811 5.00284 17.4731 4.92952 17.238 5.07424Z"
        fill="#3955A7" />
    </symbol>
    <symbol id="icon-whats-new" viewBox="0 0 24 24">
      <title>whats new</title>
      <path clip-rule="evenodd"
        d="M10.8322 3.41915C10.535 3.68326 10.3182 4.09021 10.3182 4.6818C10.3182 4.95795 10.0943 5.1818 9.81817 5.1818C9.22821 5.1818 8.26591 5.48995 7.45044 6.23317C6.65307 6.95989 6 8.09999 6 9.77273V15.1505C6 15.8056 5.7054 16.3847 5.47108 16.8453L5.44582 16.8949C5.23087 17.3183 5.06619 17.659 5.01593 18H18.9841C18.9338 17.659 18.7691 17.3183 18.5542 16.8949L18.5289 16.8453C18.2946 16.3847 18 15.8056 18 15.1505V9.77273C18 9.49658 18.2239 9.27273 18.5 9.27273C18.7761 9.27273 19 9.49658 19 9.77273V15.1505C19 15.5472 19.1836 15.9258 19.4458 16.4422L19.4608 16.4718C19.6991 16.9407 20 17.5329 20 18.2131V18.5C20 18.7761 19.7761 19 19.5 19H15C15 20.6569 13.6569 22 12 22C10.3431 22 9 20.6569 9 19H4.5C4.22386 19 4 18.7761 4 18.5V18.2131C4 17.5329 4.30089 16.9407 4.53916 16.4718L4.55418 16.4422C4.81637 15.9258 5 15.5472 5 15.1505V9.77273C5 7.80909 5.77875 6.40373 6.77683 5.49408C7.59034 4.75265 8.55326 4.33788 9.35151 4.21836C9.4473 3.57165 9.74384 3.04861 10.1678 2.67174C10.6797 2.21676 11.348 2 12 2C12.652 2 13.3203 2.21677 13.8322 2.67175C14.3532 3.13491 14.6818 3.81886 14.6818 4.6818C14.6818 4.95795 14.4579 5.1818 14.1818 5.1818C13.9057 5.1818 13.6818 4.95795 13.6818 4.6818C13.6818 4.09022 13.4649 3.68327 13.1678 3.41916C12.8615 3.14687 12.4389 3 12 3C11.5611 3 11.1385 3.14687 10.8322 3.41915ZM12 21C10.8954 21 10 20.1046 10 19H14C14 20.1046 13.1046 21 12 21Z"
        fill="#3955A7" />
      <path
        d="M19 8C20.6569 8 22 6.65685 22 5C22 3.34315 20.6569 2 19 2C17.3431 2 16 3.34315 16 5C16 6.65685 17.3431 8 19 8Z"
        fill="#3955A7" />
    </symbol>
    <symbol id="icon-release-notes" viewBox="0 0 24 24">
      <title>release notes</title><svg width="24" height="24" viewBox="0 0 24 24" fill="none"
        xmlns="http://www.w3.org/2000/svg">
        <g>
          <path clip-rule="evenodd"
            d="M11.5 1C10.8469 1 10.2913 1.4174 10.0854 2H9.5C8.67157 2 8 2.67157 8 3.5C8 4.32843 8.67157 5 9.5 5H14.5C15.3284 5 16 4.32843 16 3.5C16 2.67157 15.3284 2 14.5 2H13.9146C13.7087 1.4174 13.1531 1 12.5 1H11.5ZM11 2.5C11 2.22386 11.2239 2 11.5 2H12.5C12.7761 2 13 2.22386 13 2.5C13 2.77614 13.2239 3 13.5 3H14.5C14.7761 3 15 3.22386 15 3.5C15 3.77614 14.7761 4 14.5 4H9.5C9.22386 4 9 3.77614 9 3.5C9 3.22386 9.22386 3 9.5 3H10.5C10.7761 3 11 2.77614 11 2.5Z"
            fill="#3955A7" />
          <path
            d="M5.5 3C4.67157 3 4 3.67157 4 4.5V21.5C4 22.3284 4.67157 23 5.5 23H18.5C19.3284 23 20 22.3284 20 21.5V4.5C20 3.67157 19.3284 3 18.5 3H18C17.7239 3 17.5 3.22386 17.5 3.5C17.5 3.77614 17.7239 4 18 4H18.5C18.7761 4 19 4.22386 19 4.5V21.5C19 21.7761 18.7761 22 18.5 22H5.5C5.22386 22 5 21.7761 5 21.5V4.5C5 4.22386 5.22386 4 5.5 4H6C6.27614 4 6.5 3.77614 6.5 3.5C6.5 3.22386 6.27614 3 6 3H5.5Z"
            fill="#3955A7" />
    </symbol>
    <symbol id="icon-troubleshouting" viewBox="0 0 24 24">
      <title>troubleshouting</title>
      <path
        d="M11.1731 13.4019L11.3316 12.7786H10.6885H6.9104L14.9924 3.14685L13.0386 10.9143L12.8822 11.5363H13.5235H17.0894L9.28019 20.843L11.1731 13.4019Z"
        stroke="#3955A7" />
    </symbol>
    <symbol id="icon-nav-faq" viewBox="0 0 24 24">
      <title>faq</title>
      <path clip-rule="evenodd"
        d="M10.5929 1.19539C10.7228 1.02637 10.9455 0.958263 11.1477 1.02576L20.1196 4.02097C20.2503 4.06459 20.3572 4.16017 20.415 4.28515C20.4729 4.41014 20.4767 4.55346 20.4254 4.68131C20.1289 5.42097 20.1008 5.99602 20.208 6.53539C20.3202 7.09962 20.5828 7.64698 20.929 8.34884C20.9919 8.47621 20.9976 8.62429 20.9447 8.75612C20.6482 9.49579 20.6201 10.0708 20.7273 10.6102C20.8395 11.1744 21.1021 11.7218 21.4483 12.4237C21.527 12.5831 21.5151 12.7722 21.4171 12.9205L14.9053 22.7757C14.7752 22.9727 14.5249 23.0518 14.3052 22.9653L4.75946 19.2108C4.69933 19.1872 4.64435 19.1521 4.59757 19.1075C3.86628 18.4108 3.42662 17.6757 3.29473 16.9166C3.18498 16.285 3.29581 15.6796 3.56981 15.1211C3.0024 14.5079 2.65621 13.8673 2.54176 13.2087C2.40855 12.442 2.60033 11.7138 3.01442 11.0616C3.02242 11.049 3.03098 11.0368 3.04007 11.0249L10.5929 1.19539ZM4.41953 15.6653C4.2638 16.0251 4.21729 16.3847 4.27996 16.7454C4.36168 17.2157 4.63923 17.7456 5.21855 18.3168L14.2943 21.8865L20.4248 12.6083C20.1364 12.0172 19.8708 11.4303 19.7465 10.8053C19.7353 10.749 19.7253 10.6925 19.7165 10.6358L14.1525 19.0674C14.0224 19.2646 13.772 19.3438 13.5522 19.2574L4.41953 15.6653ZM19.9056 8.53365L13.5411 18.1784L4.46559 14.6088C3.88626 14.0376 3.60871 13.5077 3.527 13.0375C3.46389 12.6743 3.51147 12.3122 3.66977 11.95L12.8819 15.3801C13.0997 15.4612 13.3447 15.3816 13.4732 15.1878L19.1961 6.55446C19.2052 6.61335 19.2156 6.67199 19.2272 6.73044C19.3515 7.35554 19.6171 7.94254 19.9056 8.53365ZM19.184 4.76288L11.1689 2.08708L4.24558 11.0973L12.8589 14.3045L19.184 4.76288Z"
        fill="#3955A7" />
      <path clip-rule="evenodd"
        d="M11.4723 4.50246C11.7288 4.16321 12.1719 4.02338 12.5767 4.1539L15.8018 5.19372C16.2595 5.34128 16.4355 5.89575 16.1467 6.28028L15.3968 7.27892C15.1353 7.62719 14.6785 7.76614 14.2673 7.62247L11.097 6.51462C10.6489 6.35802 10.4833 5.81021 10.7696 5.43157L11.4723 4.50246ZM15.0944 6.01634L12.2699 5.10565L11.8155 5.70641L14.5972 6.67845L15.0944 6.01634Z"
        fill="#3955A7" />
    </symbol>
    <symbol id="icon-mood-happy-outline" viewBox="0 0 24 24">
      <title>mood-happy-outline</title>
      <path
        d="M10 20c-5.523 0-10-4.477-10-10s4.477-10 10-10v0c5.523 0 10 4.477 10 10s-4.477 10-10 10v0zM10 18c4.418 0 8-3.582 8-8s-3.582-8-8-8v0c-4.418 0-8 3.582-8 8s3.582 8 8 8v0zM6.5 9c-0.828 0-1.5-0.672-1.5-1.5s0.672-1.5 1.5-1.5v0c0.828 0 1.5 0.672 1.5 1.5s-0.672 1.5-1.5 1.5v0zM13.5 9c-0.828 0-1.5-0.672-1.5-1.5s0.672-1.5 1.5-1.5v0c0.828 0 1.5 0.672 1.5 1.5s-0.672 1.5-1.5 1.5v0zM15.66 12c-0.846 2.355-3.060 4.009-5.66 4.009s-4.814-1.654-5.647-3.967l-0.013-0.042h11.32z">
      </path>
    </symbol>
    <symbol id="icon-mood-happy-solid" viewBox="0 0 24 24">
      <title>mood-happy-solid</title>
      <path
        d="M10 20c-5.523 0-10-4.477-10-10s4.477-10 10-10v0c5.523 0 10 4.477 10 10s-4.477 10-10 10v0zM6.5 9c0.828 0 1.5-0.672 1.5-1.5s-0.672-1.5-1.5-1.5v0c-0.828 0-1.5 0.672-1.5 1.5s0.672 1.5 1.5 1.5v0zM13.5 9c0.828 0 1.5-0.672 1.5-1.5s-0.672-1.5-1.5-1.5v0c-0.828 0-1.5 0.672-1.5 1.5s0.672 1.5 1.5 1.5v0zM15.66 12h-11.32c0.846 2.355 3.060 4.009 5.66 4.009s4.814-1.654 5.647-3.967l0.013-0.042z">
      </path>
    </symbol>
    <symbol id="icon-mood-neutral-outline" viewBox="0 0 24 24">
      <title>mood-neutral-outline</title>
      <path
        d="M10 20c-5.523 0-10-4.477-10-10s4.477-10 10-10v0c5.523 0 10 4.477 10 10s-4.477 10-10 10v0zM10 18c4.418 0 8-3.582 8-8s-3.582-8-8-8v0c-4.418 0-8 3.582-8 8s3.582 8 8 8v0zM6.5 9c-0.828 0-1.5-0.672-1.5-1.5s0.672-1.5 1.5-1.5v0c0.828 0 1.5 0.672 1.5 1.5s-0.672 1.5-1.5 1.5v0zM13.5 9c-0.828 0-1.5-0.672-1.5-1.5s0.672-1.5 1.5-1.5v0c0.828 0 1.5 0.672 1.5 1.5s-0.672 1.5-1.5 1.5v0zM7 13h6c0.552 0 1 0.448 1 1s-0.448 1-1 1v0h-6c-0.552 0-1-0.448-1-1s0.448-1 1-1v0z">
      </path>
    </symbol>
    <symbol id="icon-mood-neutral-solid" viewBox="0 0 24 24">
      <title>mood-neutral-solid</title>
      <path
        d="M10 20c-5.523 0-10-4.477-10-10s4.477-10 10-10v0c5.523 0 10 4.477 10 10s-4.477 10-10 10v0zM6.5 9c0.828 0 1.5-0.672 1.5-1.5s-0.672-1.5-1.5-1.5v0c-0.828 0-1.5 0.672-1.5 1.5s0.672 1.5 1.5 1.5v0zM13.5 9c0.828 0 1.5-0.672 1.5-1.5s-0.672-1.5-1.5-1.5v0c-0.828 0-1.5 0.672-1.5 1.5s0.672 1.5 1.5 1.5v0zM7 13c-0.552 0-1 0.448-1 1s0.448 1 1 1v0h6c0.552 0 1-0.448 1-1s-0.448-1-1-1v0h-6z">
      </path>
    </symbol>
    <symbol id="icon-mood-sad-outline" viewBox="0 0 24 24">
      <title>mood-sad-outline</title>
      <path
        d="M10 20c-5.523 0-10-4.477-10-10s4.477-10 10-10v0c5.523 0 10 4.477 10 10s-4.477 10-10 10v0zM10 18c4.418 0 8-3.582 8-8s-3.582-8-8-8v0c-4.418 0-8 3.582-8 8s3.582 8 8 8v0zM6.5 9c-0.828 0-1.5-0.672-1.5-1.5s0.672-1.5 1.5-1.5v0c0.828 0 1.5 0.672 1.5 1.5s-0.672 1.5-1.5 1.5v0zM13.5 9c-0.828 0-1.5-0.672-1.5-1.5s0.672-1.5 1.5-1.5v0c0.828 0 1.5 0.672 1.5 1.5s-0.672 1.5-1.5 1.5v0zM15.66 15h-11.32c0.846-2.355 3.060-4.009 5.66-4.009s4.814 1.654 5.647 3.967l0.013 0.042z">
      </path>
    </symbol>
    <symbol id="icon-mood-sad-solid" viewBox="0 0 24 24">
      <title>mood-sad-solid</title>
      <path
        d="M10 20c-5.523 0-10-4.477-10-10s4.477-10 10-10v0c5.523 0 10 4.477 10 10s-4.477 10-10 10v0zM6.5 9c0.828 0 1.5-0.672 1.5-1.5s-0.672-1.5-1.5-1.5v0c-0.828 0-1.5 0.672-1.5 1.5s0.672 1.5 1.5 1.5v0zM13.5 9c0.828 0 1.5-0.672 1.5-1.5s-0.672-1.5-1.5-1.5v0c-0.828 0-1.5 0.672-1.5 1.5s0.672 1.5 1.5 1.5v0zM15.66 15c-0.846-2.355-3.060-4.009-5.66-4.009s-4.814 1.654-5.647 3.967l-0.013 0.042h11.32z">
      </path>
    </symbol>
    <symbol id="icon-navigation-more" viewBox="0 0 24 24">
      <title>navigation-more</title>
      <path
        d="M4 12c-1.105 0-2-0.895-2-2s0.895-2 2-2v0c1.105 0 2 0.895 2 2s-0.895 2-2 2v0zM10 12c-1.105 0-2-0.895-2-2s0.895-2 2-2v0c1.105 0 2 0.895 2 2s-0.895 2-2 2v0zM16 12c-1.105 0-2-0.895-2-2s0.895-2 2-2v0c1.105 0 2 0.895 2 2s-0.895 2-2 2v0z">
      </path>
    </symbol>
    <symbol id="icon-tag" viewBox="0 0 24 24">
      <title>tag</title>
      <path
        d="M0 10v-8l2-2h8l10 10-10 10-10-10zM4.5 6c0.828 0 1.5-0.672 1.5-1.5s-0.672-1.5-1.5-1.5v0c-0.828 0-1.5 0.672-1.5 1.5s0.672 1.5 1.5 1.5v0z">
      </path>
    </symbol>
    <symbol id="icon-chevron-down" viewBox="0 0 24 24">
      <title>chevron-down</title>
      <path
        d="M4.516 7.548c0.436-0.446 1.043-0.481 1.576 0l3.908 3.747 3.908-3.747c0.533-0.481 1.141-0.446 1.574 0 0.436 0.445 0.408 1.197 0 1.615-0.406 0.418-4.695 4.502-4.695 4.502-0.217 0.223-0.502 0.335-0.787 0.335s-0.57-0.112-0.789-0.335c0 0-4.287-4.084-4.695-4.502s-0.436-1.17 0-1.615z">
      </path>
    </symbol>
    <symbol id="icon-chevron-left" viewBox="0 0 24 24">
      <title>chevron-left</title>
      <path
        d="M12.452 4.516c0.446 0.436 0.481 1.043 0 1.576l-3.747 3.908 3.747 3.908c0.481 0.533 0.446 1.141 0 1.574-0.445 0.436-1.197 0.408-1.615 0-0.418-0.406-4.502-4.695-4.502-4.695-0.223-0.217-0.335-0.502-0.335-0.787s0.112-0.57 0.335-0.789c0 0 4.084-4.287 4.502-4.695s1.17-0.436 1.615 0z">
      </path>
    </symbol>
    <symbol id="icon-chevron-right" viewBox="0 0 24 24">
      <title>chevron-right</title>
      <path
        d="M9.163 4.516c0.418 0.408 4.502 4.695 4.502 4.695 0.223 0.219 0.335 0.504 0.335 0.789s-0.112 0.57-0.335 0.787c0 0-4.084 4.289-4.502 4.695-0.418 0.408-1.17 0.436-1.615 0-0.446-0.434-0.481-1.041 0-1.574l3.747-3.908-3.747-3.908c-0.481-0.533-0.446-1.141 0-1.576s1.197-0.409 1.615 0z">
      </path>
    </symbol>
    <symbol id="icon-chevron-small-down" viewBox="0 0 24 24">
      <title>chevron-small-down</title>
      <path
        d="M13.418 7.859c0.271-0.268 0.709-0.268 0.978 0s0.272 0.701 0 0.969l-3.908 3.83c-0.27 0.268-0.707 0.268-0.979 0l-3.908-3.83c-0.27-0.267-0.27-0.701 0-0.969s0.709-0.268 0.978 0l3.421 3.141 3.418-3.141z">
      </path>
    </symbol>
    <symbol id="icon-chevron-small-left" viewBox="0 0 24 24">
      <title>chevron-small-left</title>
      <path
        d="M12.141 13.418c0.268 0.271 0.268 0.709 0 0.978s-0.701 0.272-0.969 0l-3.83-3.908c-0.268-0.27-0.268-0.707 0-0.979l3.83-3.908c0.267-0.27 0.701-0.27 0.969 0s0.268 0.709 0 0.978l-3.141 3.421 3.141 3.418z">
      </path>
    </symbol>
    <symbol id="icon-chevron-small-right" viewBox="0 0 24 24">
      <title>chevron-small-right</title>
      <path
        d="M11 10l-3.141-3.42c-0.268-0.27-0.268-0.707 0-0.978 0.268-0.27 0.701-0.27 0.969 0l3.83 3.908c0.268 0.271 0.268 0.709 0 0.979l-3.83 3.908c-0.267 0.272-0.701 0.27-0.969 0s-0.268-0.707 0-0.978l3.141-3.419z">
      </path>
    </symbol>
    <symbol id="icon-chevron-small-up" viewBox="0 0 24 24">
      <title>chevron-small-up</title>
      <path
        d="M6.582 12.141c-0.271 0.268-0.709 0.268-0.978 0s-0.272-0.701 0-0.969l3.908-3.83c0.27-0.268 0.707-0.268 0.979 0l3.908 3.83c0.27 0.267 0.27 0.701 0 0.969s-0.709 0.268-0.979 0l-3.42-3.141-3.418 3.141z">
      </path>
    </symbol>
    <symbol id="icon-chevron-thin-down" viewBox="0 0 24 24">
      <title>chevron-thin-down</title>
      <path
        d="M17.418 6.109c0.272-0.268 0.709-0.268 0.979 0s0.271 0.701 0 0.969l-7.908 7.83c-0.27 0.268-0.707 0.268-0.979 0l-7.908-7.83c-0.27-0.268-0.27-0.701 0-0.969s0.709-0.268 0.979 0l7.419 7.141 7.418-7.141z">
      </path>
    </symbol>
    <symbol id="icon-chevron-thin-left" viewBox="0 0 24 24">
      <title>chevron-thin-left</title>
      <path
        d="M13.891 17.418c0.268 0.272 0.268 0.709 0 0.979s-0.701 0.271-0.969 0l-7.83-7.908c-0.268-0.27-0.268-0.707 0-0.979l7.83-7.908c0.268-0.27 0.701-0.27 0.969 0s0.268 0.709 0 0.979l-7.141 7.419 7.141 7.418z">
      </path>
    </symbol>
    <symbol id="icon-chevron-thin-right" viewBox="0 0 24 24">
      <title>chevron-thin-right</title>
      <path
        d="M13.25 10l-7.141-7.42c-0.268-0.27-0.268-0.707 0-0.979 0.268-0.27 0.701-0.27 0.969 0l7.83 7.908c0.268 0.271 0.268 0.709 0 0.979l-7.83 7.908c-0.268 0.271-0.701 0.27-0.969 0s-0.268-0.707 0-0.979l7.141-7.417z">
      </path>
    </symbol>
    <symbol id="icon-chevron-thin-up" viewBox="0 0 24 24">
      <title>chevron-thin-up</title>
      <path
        d="M2.582 13.891c-0.272 0.268-0.709 0.268-0.979 0s-0.271-0.701 0-0.969l7.908-7.83c0.27-0.268 0.707-0.268 0.979 0l7.908 7.83c0.27 0.268 0.27 0.701 0 0.969s-0.709 0.268-0.978 0l-7.42-7.141-7.418 7.141z">
      </path>
    </symbol>
    <symbol id="icon-chevron-up" viewBox="0 0 24 24">
      <title>chevron-up</title>
      <path
        d="M15.484 12.452c-0.436 0.446-1.043 0.481-1.576 0l-3.908-3.747-3.908 3.747c-0.533 0.481-1.141 0.446-1.574 0-0.436-0.445-0.408-1.197 0-1.615 0.406-0.418 4.695-4.502 4.695-4.502 0.217-0.223 0.502-0.335 0.787-0.335s0.57 0.112 0.789 0.335c0 0 4.287 4.084 4.695 4.502s0.436 1.17 0 1.615z">
      </path>
    </symbol>
    <symbol id="icon-dots-three-horizontal" viewBox="0 0 24 24">
      <title>dots-three-horizontal</title>
      <path
        d="M10.001 7.8c-1.215 0-2.201 0.985-2.201 2.2s0.986 2.2 2.201 2.2c1.215 0 2.199-0.985 2.199-2.2s-0.984-2.2-2.199-2.2zM3.001 7.8c-1.215 0-2.201 0.985-2.201 2.2s0.986 2.2 2.201 2.2c1.215 0 2.199-0.986 2.199-2.2s-0.984-2.2-2.199-2.2zM17.001 7.8c-1.215 0-2.201 0.985-2.201 2.2s0.986 2.2 2.201 2.2c1.215 0 2.199-0.985 2.199-2.2s-0.984-2.2-2.199-2.2z">
      </path>
    </symbol>
    <symbol id="icon-dots-three-vertical" viewBox="0 0 24 24">
      <title>dots-three-vertical</title>
      <path
        d="M10.001 7.8c-1.215 0-2.201 0.985-2.201 2.2s0.986 2.2 2.201 2.2c1.215 0 2.199-0.985 2.199-2.2s-0.984-2.2-2.199-2.2zM10.001 5.2c1.215 0 2.199-0.986 2.199-2.2s-0.984-2.2-2.199-2.2c-1.215 0-2.201 0.985-2.201 2.2s0.986 2.2 2.201 2.2zM10.001 14.8c-1.215 0-2.201 0.985-2.201 2.2s0.986 2.2 2.201 2.2c1.215 0 2.199-0.985 2.199-2.2s-0.984-2.2-2.199-2.2z">
      </path>
    </symbol>
    <symbol id="icon-open-book" viewBox="0 0 24 24">
      <title>open-book</title>
      <path
        d="M10.595 5.196l0.446 1.371c0.369-0.316 0.835-0.599 1.441-0.795 0.59-0.192 1.111-0.3 1.582-0.362l-0.43-1.323c-0.476 0.069-1.001 0.18-1.58 0.368s-1.055 0.45-1.459 0.741zM11.522 8.051l0.446 1.371c0.369-0.316 0.835-0.599 1.441-0.795 0.59-0.192 1.111-0.3 1.582-0.362l-0.43-1.323c-0.476 0.069-1.001 0.18-1.58 0.368-0.578 0.187-1.054 0.449-1.459 0.741zM12.45 10.905l0.446 1.371c0.369-0.316 0.835-0.599 1.441-0.795 0.59-0.192 1.111-0.3 1.582-0.362l-0.43-1.323c-0.476 0.069-1.001 0.18-1.58 0.368-0.579 0.187-1.055 0.45-1.459 0.741zM5.388 13.077l0.43 1.323c0.417-0.226 0.902-0.445 1.492-0.636 0.606-0.197 1.149-0.242 1.633-0.203l-0.446-1.371c-0.499 0.002-1.038 0.070-1.615 0.257-0.579 0.188-1.069 0.406-1.494 0.63zM3.533 7.368l0.43 1.323c0.417-0.226 0.902-0.444 1.492-0.636 0.606-0.197 1.149-0.242 1.633-0.203l-0.445-1.372c-0.499 0.003-1.038 0.070-1.616 0.258-0.579 0.188-1.069 0.406-1.494 0.63zM4.46 10.223l0.43 1.323c0.417-0.226 0.902-0.445 1.492-0.636 0.606-0.197 1.149-0.242 1.633-0.203l-0.445-1.372c-0.499 0.002-1.038 0.070-1.615 0.257-0.579 0.188-1.070 0.407-1.495 0.631zM11.064 1.41c-1.723 0.56-2.623 1.752-3.053 2.559-0.822-0.4-2.25-0.835-3.973-0.275-2.523 0.82-3.969 2.627-3.969 2.627l4.095 12.587c0.126 0.387 0.646 0.477 0.878 0.143 0.499-0.719 1.46-1.658 3.257-2.242 1.718-0.558 2.969 0.054 3.655 0.578 0.272 0.208 0.662 0.060 0.762-0.268 0.252-0.827 0.907-2.040 2.61-2.593 1.799-0.585 3.129-0.389 3.956-0.1 0.385 0.134 0.75-0.242 0.625-0.629l-4.088-12.594c0 0-2.232-0.612-4.755 0.207zM10.951 15.256c-0.819-0.244-1.901-0.358-3.141 0.044-1.251 0.406-2.127 0.949-2.699 1.404l-3.245-9.982c0.358-0.358 1.187-1.042 2.662-1.521 1.389-0.451 2.528-0.065 3.279 0.378l3.144 9.677zM17.845 12.567c-0.731-0.032-1.759 0.044-3.010 0.451-1.24 0.403-2.048 1.132-2.567 1.81l-3.144-9.677c0.346-0.8 1.040-1.782 2.43-2.233 1.474-0.479 2.547-0.413 3.047-0.334l3.244 9.983z">
      </path>
    </symbol>
    <symbol id="icon-brush" viewBox="0 0 24 24">
      <title>brush</title>
      <path
        d="M2.763 13.563c-1.515 1.488-0.235 3.016-2.247 5.279-0.908 1.023 3.738 0.711 6.039-1.551 0.977-0.961 0.701-2.359-0.346-3.389-1.047-1.028-2.47-1.3-3.446-0.339zM19.539 0.659c-0.776-0.764-9.379 6.129-11.939 8.646-1.271 1.25-1.695 1.92-2.084 2.42-0.17 0.219 0.055 0.285 0.154 0.336 0.504 0.258 0.856 0.496 1.311 0.943s0.699 0.793 0.959 1.289c0.053 0.098 0.121 0.318 0.342 0.152 0.51-0.383 1.191-0.801 2.462-2.049 2.561-2.516 9.573-10.974 8.795-11.737z">
      </path>
    </symbol>
    <symbol id="icon-calculator" viewBox="0 0 24 24">
      <title>calculator</title>
      <path
        d="M14.6 1h-9.202c-0.769 0-1.398 0.629-1.398 1.4v15.2c0 0.77 0.629 1.4 1.398 1.4h9.202c0.769 0 1.4-0.631 1.4-1.4v-15.2c0-0.771-0.631-1.4-1.4-1.4zM7 12c0.689 0 1.25 0.447 1.25 1s-0.561 1-1.25 1c-0.69 0-1.25-0.447-1.25-1s0.56-1 1.25-1zM5.75 10c0-0.553 0.56-1 1.25-1s1.25 0.447 1.25 1-0.561 1-1.25 1c-0.69 0-1.25-0.447-1.25-1zM7 15c0.689 0 1.25 0.447 1.25 1s-0.561 1-1.25 1c-0.69 0-1.25-0.447-1.25-1s0.56-1 1.25-1zM10 12c0.689 0 1.25 0.447 1.25 1s-0.561 1-1.25 1c-0.69 0-1.25-0.447-1.25-1s0.56-1 1.25-1zM8.75 10c0-0.553 0.56-1 1.25-1s1.25 0.447 1.25 1-0.561 1-1.25 1c-0.69 0-1.25-0.447-1.25-1zM10 15c0.689 0 1.25 0.447 1.25 1s-0.561 1-1.25 1c-0.69 0-1.25-0.447-1.25-1s0.56-1 1.25-1zM13 12c0.689 0 1.25 0.447 1.25 1s-0.561 1-1.25 1c-0.69 0-1.25-0.447-1.25-1s0.56-1 1.25-1zM11.75 10c0-0.553 0.56-1 1.25-1s1.25 0.447 1.25 1-0.561 1-1.25 1c-0.69 0-1.25-0.447-1.25-1zM13 15c0.689 0 1.25 0.447 1.25 1s-0.561 1-1.25 1c-0.69 0-1.25-0.447-1.25-1s0.56-1 1.25-1zM5 7v-3h10v3h-10z">
      </path>
    </symbol>
    <symbol id="icon-calendar1" viewBox="0 0 24 24">
      <title>calendar1</title>
      <path
        d="M17 3h-1v2h-3v-2h-6v2h-3v-2h-1c-1.101 0-2 0.9-2 2v12c0 1.1 0.899 2 2 2h14c1.1 0 2-0.9 2-2v-12c0-1.1-0.9-2-2-2zM17 17h-14v-8h14v8zM6.5 1h-2v3.5h2v-3.5zM15.5 1h-2v3.5h2v-3.5z">
      </path>
    </symbol>
    <symbol id="icon-camera1" viewBox="0 0 24 24">
      <title>camera1</title>
      <path
        d="M10 8c-1.657 0-3 1.344-3 3s1.343 3 3 3c1.656 0 3-1.344 3-3s-1.344-3-3-3zM18 5h-2.4c-0.33 0-0.686-0.256-0.789-0.57l-0.621-1.861c-0.105-0.313-0.459-0.569-0.79-0.569h-6.8c-0.33 0-0.686 0.256-0.789 0.568l-0.622 1.862c-0.104 0.314-0.459 0.57-0.789 0.57h-2.4c-1.1 0-2 0.9-2 2v9c0 1.1 0.9 2 2 2h16c1.1 0 2-0.9 2-2v-9c0-1.1-0.9-2-2-2zM10 16c-2.762 0-5-2.238-5-5s2.238-5 5-5c2.761 0 5 2.238 5 5s-2.239 5-5 5zM17.5 8.2c-0.387 0-0.7-0.314-0.7-0.701 0-0.385 0.313-0.7 0.7-0.7s0.7 0.314 0.7 0.7c0 0.387-0.313 0.701-0.7 0.701z">
      </path>
    </symbol>
    <symbol id="icon-check" viewBox="0 0 24 24">
      <title>check</title>
      <path
        d="M8.294 16.998c-0.435 0-0.847-0.203-1.111-0.553l-3.573-4.721c-0.465-0.613-0.344-1.486 0.27-1.951 0.615-0.467 1.488-0.344 1.953 0.27l2.351 3.104 5.911-9.492c0.407-0.652 1.267-0.852 1.921-0.445s0.854 1.266 0.446 1.92l-6.984 11.21c-0.242 0.391-0.661 0.635-1.12 0.656-0.022 0.002-0.042 0.002-0.064 0.002z">
      </path>
    </symbol>
    <symbol id="icon-clapperboard" viewBox="0 0 24 24">
      <title>clapperboard</title>
      <path
        d="M20 3v14c0 0.552-0.447 1-1 1h-18c-0.553 0-1-0.448-1-1v-14c0-0.553 0.447-1 1-1h1l3 3h2.5l-3-3h3l3 3h2.5l-3-3h3l3 3h2.5l-3-3h3.5c0.553 0 1 0.448 1 1z">
      </path>
    </symbol>
    <symbol id="icon-flashlight" viewBox="0 0 24 24">
      <title>flashlight</title>
      <path
        d="M17.115 2.884c-1.676-1.676-3.779-2.288-4.449-1.618l-2.696 2.696c-0.409 0.41-0.766 1.779-0.602 3.164l-8.161 8.161c-0.484 0.484-0.092 1.66 0.876 2.629s2.146 1.359 2.629 0.877l8.161-8.162c1.386 0.164 2.755-0.193 3.164-0.601l2.696-2.697c0.67-0.67 0.058-2.774-1.618-4.449zM8.141 11.039c-0.373-0.372-0.251-1.096 0.269-1.617s1.246-0.643 1.618-0.27c0.372 0.371 0.251 1.097-0.27 1.617-0.521 0.522-1.245 0.643-1.617 0.27zM14.891 5.108c-1.298-1.297-1.623-3.010-1.508-3.125s1.76 0.277 3.059 1.575c1.298 1.298 1.688 2.946 1.575 3.059-0.112 0.112-1.829-0.21-3.126-1.509z">
      </path>
    </symbol>
    <symbol id="icon-folder-images" viewBox="0 0 24 24">
      <title>folder-images</title>
      <path
        d="M18.405 2.799c-0.112-0.44-0.656-0.799-1.21-0.799h-14.39c-0.555 0-1.099 0.359-1.21 0.799l-0.201 1.201h17.211l-0.2-1.201zM19.412 5h-18.825c-0.342 0-0.609 0.294-0.577 0.635l0.923 11.669c0.038 0.394 0.37 0.696 0.766 0.696h16.601c0.397 0 0.728-0.302 0.766-0.696l0.923-11.669c0.033-0.341-0.235-0.635-0.577-0.635zM12.438 8.375c0.518 0 0.938 0.42 0.938 0.938s-0.42 0.938-0.938 0.938-0.938-0.421-0.938-0.939c0-0.517 0.42-0.937 0.938-0.937zM5.5 14l2.486-5.714 2.827 4.576 2.424-1.204 1.263 2.342h-9z">
      </path>
    </symbol>
    <symbol id="icon-folder-music" viewBox="0 0 24 24">
      <title>folder-music</title>
      <path
        d="M18.405 2.799c-0.112-0.44-0.656-0.799-1.21-0.799h-14.39c-0.555 0-1.099 0.359-1.21 0.799l-0.201 1.201h17.211l-0.2-1.201zM19.412 5h-18.825c-0.342 0-0.609 0.294-0.577 0.635l0.923 11.669c0.038 0.394 0.37 0.696 0.766 0.696h16.601c0.397 0 0.728-0.302 0.766-0.696l0.923-11.669c0.033-0.341-0.235-0.635-0.577-0.635zM11.942 12.521c-0.128 0.265-0.258 0.279-0.202 0 0.146-0.721 0.047-2.269-1.043-2.441v3.294c0 0.674-0.311 1.262-1.136 1.528-0.802 0.256-1.699-0.011-1.908-0.586s0.261-1.276 1.052-1.564c0.442-0.161 0.954-0.203 1.299-0.070v-4.682h0.694c-0.001 1.633 2.818 1.275 1.244 4.521z">
      </path>
    </symbol>
    <symbol id="icon-folder-video" viewBox="0 0 24 24">
      <title>folder-video</title>
      <path
        d="M18.405 2.799c-0.112-0.44-0.656-0.799-1.21-0.799h-14.39c-0.555 0-1.099 0.359-1.21 0.799l-0.201 1.201h17.211l-0.2-1.201zM19.412 5h-18.825c-0.342 0-0.609 0.294-0.577 0.635l0.923 11.669c0.038 0.394 0.37 0.696 0.766 0.696h16.601c0.397 0 0.728-0.302 0.766-0.696l0.923-11.669c0.033-0.341-0.235-0.635-0.577-0.635zM8 14v-5l4.383 2.5-4.383 2.5z">
      </path>
    </symbol>
    <symbol id="icon-folder" viewBox="0 0 24 24">
      <title>folder</title>
      <path
        d="M18.405 4.799c-0.111-0.44-0.655-0.799-1.21-0.799h-6.814c-0.554 0-1.33-0.318-1.722-0.707l-0.596-0.588c-0.392-0.389-1.167-0.705-1.721-0.705h-3.255c-0.555 0-1.059 0.447-1.12 0.994l-0.292 3.006h16.931l-0.201-1.201zM19.412 7h-18.824c-0.342 0-0.61 0.294-0.577 0.635l0.923 9.669c0.037 0.394 0.369 0.696 0.766 0.696h16.6c0.397 0 0.728-0.302 0.766-0.696l0.923-9.669c0.033-0.341-0.235-0.635-0.577-0.635z">
      </path>
    </symbol>
    <symbol id="icon-forward" viewBox="0 0 24 24">
      <title>forward</title>
      <path d="M12 11.874v4.357l7-6.69-7-6.572v3.983c-8.775 0-11 9.732-11 9.732 2.484-4.388 6.237-4.81 11-4.81z"></path>
    </symbol>
    <symbol id="icon-grid" viewBox="0 0 24 24">
      <title>grid</title>
      <path
        d="M8 4h-3c-0.553 0-1 0.447-1 1v3c0 0.552 0.447 1 1 1h3c0.553 0 1-0.448 1-1v-3c0-0.552-0.447-1-1-1zM15 4h-3c-0.553 0-1 0.447-1 1v3c0 0.552 0.447 1 1 1h3c0.553 0 1-0.448 1-1v-3c0-0.552-0.447-1-1-1zM8 11h-3c-0.553 0-1 0.447-1 1v3c0 0.552 0.447 1 1 1h3c0.553 0 1-0.448 1-1v-3c0-0.552-0.447-1-1-1zM15 11h-3c-0.553 0-1 0.447-1 1v3c0 0.552 0.447 1 1 1h3c0.553 0 1-0.448 1-1v-3c0-0.552-0.447-1-1-1z">
      </path>
    </symbol>
    <symbol id="icon-heart-outlined" viewBox="0 0 24 24">
      <title>heart-outlined</title>
      <path
        d="M17.19 4.156c-1.672-1.535-4.383-1.535-6.055 0l-1.135 1.041-1.136-1.041c-1.672-1.535-4.382-1.535-6.054 0-1.881 1.726-1.881 4.519 0 6.245l7.19 6.599 7.19-6.599c1.88-1.726 1.88-4.52 0-6.245zM16.124 9.375l-6.124 5.715-6.125-5.715c-0.617-0.567-0.856-1.307-0.856-2.094s0.138-1.433 0.756-1.999c0.545-0.501 1.278-0.777 2.063-0.777s1.517 0.476 2.062 0.978l2.1 1.825 2.099-1.826c0.546-0.502 1.278-0.978 2.063-0.978s1.518 0.276 2.063 0.777c0.618 0.566 0.755 1.212 0.755 1.999s-0.238 1.528-0.856 2.095z">
      </path>
    </symbol>
    <symbol id="icon-heart" viewBox="0 0 24 24">
      <title>heart</title>
      <path
        d="M17.19 4.155c-1.672-1.534-4.383-1.534-6.055 0l-1.135 1.042-1.136-1.042c-1.672-1.534-4.382-1.534-6.054 0-1.881 1.727-1.881 4.52 0 6.246l7.19 6.599 7.19-6.599c1.88-1.726 1.88-4.52 0-6.246z">
      </path>
    </symbol>
    <symbol id="icon-home1" viewBox="0 0 24 24">
      <title>home1</title>
      <path
        d="M18.672 11h-1.672v6c0 0.445-0.194 1-1 1h-4v-6h-4v6h-4c-0.806 0-1-0.555-1-1v-6h-1.672c-0.598 0-0.47-0.324-0.060-0.748l8.024-8.032c0.195-0.202 0.451-0.302 0.708-0.312 0.257 0.010 0.513 0.109 0.708 0.312l8.023 8.031c0.411 0.425 0.539 0.749-0.059 0.749z">
      </path>
    </symbol>
    <symbol id="icon-hour-glass" viewBox="0 0 24 24">
      <title>hour-glass</title>
      <path
        d="M15.6 4.576c0-2.139 0-2.348 0-2.348 0-0.789-2.508-2.228-5.6-2.228-3.093 0-5.6 1.439-5.6 2.228 0 0 0 0.209 0 2.348 0 2.141 3.877 3.908 3.877 5.424 0 1.514-3.877 3.281-3.877 5.422s0 2.35 0 2.35c0 0.788 2.507 2.228 5.6 2.228 3.092 0 5.6-1.44 5.6-2.229 0 0 0-0.209 0-2.35s-3.877-3.908-3.877-5.422c0-1.515 3.877-3.282 3.877-5.423zM5.941 2.328c0.696-0.439 2-1.082 4.114-1.082s4.006 1.082 4.006 1.082c0.142 0.086 0.698 0.383 0.317 0.609-0.838 0.497-2.478 1.020-4.378 1.020s-3.484-0.576-4.324-1.074c-0.381-0.225 0.265-0.555 0.265-0.555zM10.501 10c0 1.193 0.996 1.961 2.051 2.986 0.771 0.748 1.826 1.773 1.826 2.435v1.328c-0.97-0.483-3.872-0.955-3.872-2.504 0-0.783-1.013-0.783-1.013 0 0 1.549-2.902 2.021-3.872 2.504v-1.328c0-0.662 1.056-1.688 1.826-2.435 1.055-1.025 2.051-1.793 2.051-2.986s-0.996-1.961-2.051-2.986c-0.771-0.75-1.826-1.775-1.826-2.438l-0.046-0.998c1.026 0.553 2.652 1.078 4.425 1.078 1.772 0 3.406-0.525 4.433-1.078l-0.055 0.998c0 0.662-1.056 1.688-1.826 2.438-1.054 1.025-2.051 1.793-2.051 2.986z">
      </path>
    </symbol>
    <symbol id="icon-image-inverted" viewBox="0 0 24 24">
      <title>image-inverted</title>
      <path
        d="M18 3h-16c-0.553 0-1 0.447-1 1v12c0 0.552 0.447 1 1 1h16c0.553 0 1-0.448 1-1v-12c0-0.552-0.447-1-1-1zM13.25 6.5c0.69 0 1.25 0.56 1.25 1.25s-0.56 1.25-1.25 1.25-1.25-0.56-1.25-1.25 0.56-1.25 1.25-1.25zM4 14l3.314-7.619 3.769 6.102 3.231-1.605 1.686 3.122h-12z">
      </path>
    </symbol>
    <symbol id="icon-image" viewBox="0 0 24 24">
      <title>image</title>
      <path
        d="M19 2h-18c-0.553 0-1 0.447-1 1v14c0 0.552 0.447 1 1 1h18c0.553 0 1-0.448 1-1v-14c0-0.552-0.447-1-1-1zM18 16h-16v-12h16v12zM14.315 10.877l-3.231 1.605-3.77-6.101-3.314 7.619h12l-1.685-3.123zM13.25 9c0.69 0 1.25-0.56 1.25-1.25s-0.56-1.25-1.25-1.25-1.25 0.56-1.25 1.25 0.56 1.25 1.25 1.25z">
      </path>
    </symbol>
    <symbol id="icon-images" viewBox="0 0 24 24">
      <title>images</title>
      <path
        d="M17.125 6.17l-2.046-5.635c-0.151-0.416-0.595-0.637-0.989-0.492l-13.598 4.963c-0.394 0.144-0.593 0.597-0.441 1.013l2.156 5.941v-3.183c0-1.438 1.148-2.607 2.56-2.607h3.593l4.285-3.008 2.479 3.008h2.001zM19.238 8h-14.471c-0.42 0-0.762 0.334-0.762 0.777v9.42c0.001 0.444 0.343 0.803 0.762 0.803h14.471c0.42 0 0.762-0.359 0.762-0.803v-9.42c0-0.443-0.342-0.777-0.762-0.777zM18 17h-12v-2l1.984-4.018 2.768 3.436 2.598-2.662 3.338-1.205 1.312 3.449v3z">
      </path>
    </symbol>
    <symbol id="icon-info-with-circle" viewBox="0 0 24 24">
      <title>info-with-circle</title>
      <path
        d="M10 0.4c-5.303 0-9.601 4.298-9.601 9.6 0 5.303 4.298 9.601 9.601 9.601 5.301 0 9.6-4.298 9.6-9.601s-4.299-9.6-9.6-9.6zM10.896 3.866c0.936 0 1.211 0.543 1.211 1.164 0 0.775-0.62 1.492-1.679 1.492-0.886 0-1.308-0.445-1.282-1.182 0-0.621 0.519-1.474 1.75-1.474zM8.498 15.75c-0.64 0-1.107-0.389-0.66-2.094l0.733-3.025c0.127-0.484 0.148-0.678 0-0.678-0.191 0-1.022 0.334-1.512 0.664l-0.319-0.523c1.555-1.299 3.343-2.061 4.108-2.061 0.64 0 0.746 0.756 0.427 1.92l-0.84 3.18c-0.149 0.562-0.085 0.756 0.064 0.756 0.192 0 0.82-0.232 1.438-0.719l0.362 0.486c-1.513 1.512-3.162 2.094-3.801 2.094z">
      </path>
    </symbol>
    <symbol id="icon-info" viewBox="0 0 24 24">
      <title>info</title>
      <path
        d="M12.432 0c1.34 0 2.010 0.912 2.010 1.957 0 1.305-1.164 2.512-2.679 2.512-1.269 0-2.009-0.75-1.974-1.99 0-1.043 0.881-2.479 2.643-2.479zM8.309 20c-1.058 0-1.833-0.652-1.093-3.524l1.214-5.092c0.211-0.814 0.246-1.141 0-1.141-0.317 0-1.689 0.562-2.502 1.117l-0.528-0.88c2.572-2.186 5.531-3.467 6.801-3.467 1.057 0 1.233 1.273 0.705 3.23l-1.391 5.352c-0.246 0.945-0.141 1.271 0.106 1.271 0.317 0 1.357-0.392 2.379-1.207l0.6 0.814c-2.502 2.547-5.235 3.527-6.291 3.527z">
      </path>
    </symbol>
    <symbol id="icon-keyboard" viewBox="0 0 24 24">
      <title>keyboard</title>
      <path
        d="M18.6 4h-17.2c-0.771 0-1.4 0.629-1.4 1.4v9.2c0 0.769 0.629 1.4 1.399 1.4h17.2c0.77 0 1.4-0.631 1.4-1.4v-9.2c0.001-0.771-0.63-1.4-1.399-1.4zM11 6h2v2h-2v-2zM14 9v2h-2v-2h2zM8 6h2v2h-2v-2zM11 9v2h-2v-2h2zM5 6h2v2h-2v-2zM8 9v2h-2v-2h2zM2 6h2v2h-2v-2zM5 9v2h-2v-2h2zM4 14h-2v-2h2v2zM15 14h-10v-2h10v2zM18 14h-2v-2h2v2zM15 11v-2h2v2h-2zM18 8h-4v-2h4v2z">
      </path>
    </symbol>
    <symbol id="icon-lab-flask" viewBox="0 0 24 24">
      <title>lab-flask</title>
      <path
        d="M16.432 15c-2.045-5.107-4.432-6.453-4.432-9v-3h0.5c0.276 0 0.5-0.224 0.5-0.5v-1c0-0.276-0.224-0.5-0.5-0.5h-5c-0.276 0-0.5 0.224-0.5 0.5v1c0 0.276 0.224 0.5 0.5 0.5h0.5v3c0 2.547-2.387 3.893-4.432 9-0.651 1.625-2.323 4 6.432 4s7.083-2.375 6.432-4zM14.815 16.751c-0.702 0.21-2.099 0.449-4.815 0.449s-4.113-0.239-4.815-0.449c-0.249-0.074-0.346-0.363-0.258-0.628 0.22-0.67 0.635-1.828 1.411-3.121 1.896-3.159 3.863 0.497 5.5 0.497s1.188-1.561 1.824-0.497c0.774 1.294 1.191 2.451 1.411 3.121 0.088 0.265-0.009 0.553-0.258 0.628z">
      </path>
    </symbol>
    <symbol id="icon-minus" viewBox="0 0 24 24">
      <title>minus</title>
      <path
        d="M16 10c0 0.553-0.048 1-0.601 1h-10.798c-0.552 0-0.601-0.447-0.601-1s0.049-1 0.601-1h10.799c0.552 0 0.6 0.447 0.6 1z">
      </path>
    </symbol>
    <symbol id="icon-palette" viewBox="0 0 24 24">
      <title>palette</title>
      <path
        d="M15.74 2.608c-3.528-1.186-7.066-0.961-10.72 1.274-2.853 1.743-4.718 6.076-4.103 9.182 0.728 3.671 4.351 5.995 9.243 4.651 5.275-1.449 6.549-4.546 6.379-5.334s-2.665-1.652-1.718-3.498c1.188-2.313 3.129-1.149 3.982-1.622 0.855-0.472 0.539-3.442-3.063-4.653zM12.094 13.314c-0.798 0.218-1.623-0.256-1.843-1.059-0.221-0.805 0.248-1.631 1.046-1.849s1.622 0.254 1.843 1.059c0.22 0.803-0.248 1.631-1.046 1.849z">
      </path>
    </symbol>
    <symbol id="icon-plus" viewBox="0 0 24 24">
      <title>plus</title>
      <path
        d="M16 10c0 0.553-0.048 1-0.601 1h-4.399v4.399c0 0.552-0.447 0.601-1 0.601s-1-0.049-1-0.601v-4.399h-4.399c-0.552 0-0.601-0.447-0.601-1s0.049-1 0.601-1h4.399v-4.399c0-0.553 0.447-0.601 1-0.601s1 0.048 1 0.601v4.399h4.399c0.553 0 0.601 0.447 0.601 1z">
      </path>
    </symbol>
    <symbol id="icon-price-tag" viewBox="0 0 24 24">
      <title>price-tag</title>
      <path
        d="M19.388 0.405c-0.111-0.314-0.454-0.48-0.769-0.371s-0.481 0.455-0.372 0.77c0.929 2.67-0.915 4.664-2.321 5.732l-0.568-0.814c-0.191-0.273-0.618-0.5-0.95-0.504l-3.188 0.014c-0.332-0.006-0.825 0.146-1.097 0.338l-9.394 6.587c-0.455 0.32-0.565 0.947-0.247 1.404l4.269 6.108c0.32 0.455 0.831 0.4 1.287 0.082l9.394-6.588c0.27-0.191 0.582-0.603 0.692-0.918l0.998-3.145c0.11-0.314 0.043-0.793-0.148-1.066l-0.346-0.496c1.888-1.447 3.848-4.004 2.76-7.133zM15.017 9.763c-0.727 0.51-1.731 0.332-2.24-0.396-0.511-0.73-0.333-1.734 0.395-2.246 0.578-0.405 1.328-0.376 1.868 0.017-0.272 0.164-0.459 0.26-0.494 0.275-0.301 0.143-0.43 0.504-0.288 0.805 0.104 0.219 0.321 0.348 0.547 0.348 0.086 0 0.174-0.020 0.257-0.059 0.194-0.092 0.402-0.201 0.619-0.33 0.097 0.594-0.139 1.217-0.664 1.586z">
      </path>
    </symbol>
    <symbol id="icon-v-card" viewBox="0 0 24 24">
      <title>v-card</title>
      <path
        d="M19 3h-18c-0.553 0-1 0.447-1 1v12c0 0.552 0.447 1 1 1h18c0.553 0 1-0.448 1-1v-12c0-0.552-0.447-1-1-1zM13 7h4v1h-4v-1zM11 14.803c-0.129-0.102-0.293-0.201-0.529-0.303-1.18-0.508-2.961-1.26-2.961-2.176 0-0.551 0.359-0.371 0.518-1.379 0.066-0.418 0.385-0.007 0.445-0.961 0-0.38-0.174-0.475-0.174-0.475s0.088-0.562 0.123-0.996c0.036-0.453-0.221-1.8-1.277-2.097-0.186-0.188-0.311-0.111 0.258-0.412-1.244-0.059-1.534 0.592-2.196 1.071-0.564 0.42-0.717 1.085-0.689 1.439 0.037 0.433 0.125 0.996 0.125 0.996s-0.175 0.094-0.175 0.474c0.061 0.954 0.38 0.543 0.445 0.961 0.158 1.008 0.519 0.828 0.519 1.379 0 0.916-1.781 1.668-2.961 2.176-0.203 0.088-0.349 0.173-0.471 0.26v-9.76h9v9.803zM18 11h-5v-1h5v1z">
      </path>
    </symbol>
    <symbol id="icon-github-with-circle" viewBox="0 0 24 24">
      <title>github-with-circle</title>
      <path
        d="M10.015 9.949c0 0-0.010 0-0.015 0h-0.015c-1.191 0-2.24-0.303-2.861 0.268-0.371 0.342-0.527 0.754-0.527 1.197 0 1.852 1.483 2.080 3.389 2.080h0.029c1.905 0 3.389-0.229 3.389-2.080 0-0.443-0.156-0.856-0.527-1.197-0.622-0.571-1.671-0.268-2.862-0.268zM8.393 12.48c-0.363 0-0.656-0.408-0.656-0.91s0.293-0.908 0.656-0.908c0.363 0 0.657 0.406 0.657 0.908s-0.293 0.91-0.657 0.91zM11.606 12.48c-0.363 0-0.657-0.408-0.657-0.91s0.294-0.908 0.657-0.908c0.362 0 0.656 0.406 0.656 0.908s-0.293 0.91-0.656 0.91zM10 0.4c-5.302 0-9.6 4.298-9.6 9.6s4.298 9.6 9.6 9.6 9.6-4.298 9.6-9.6-4.298-9.6-9.6-9.6zM10.876 13.939c-0.172 0-0.514 0-0.876 0.002-0.362-0.002-0.704-0.002-0.876-0.002-0.76 0-3.772-0.059-3.772-3.689 0-0.834 0.286-1.445 0.755-1.955-0.074-0.184-0.078-1.232 0.32-2.236 0 0 0.916 0.1 2.301 1.051 0.289-0.081 0.781-0.122 1.272-0.122s0.982 0.041 1.273 0.121c1.385-0.951 2.301-1.051 2.301-1.051 0.398 1.004 0.395 2.053 0.32 2.236 0.469 0.51 0.755 1.121 0.755 1.955-0.001 3.632-3.013 3.69-3.773 3.69z">
      </path>
    </symbol>
    <symbol id="icon-github" viewBox="0 0 24 24">
      <title>github</title>
      <path
        d="M13.18 11.309c-0.718 0-1.3 0.807-1.3 1.799 0 0.994 0.582 1.801 1.3 1.801s1.3-0.807 1.3-1.801c-0.001-0.992-0.582-1.799-1.3-1.799zM17.706 6.626c0.149-0.365 0.155-2.439-0.635-4.426 0 0-1.811 0.199-4.551 2.080-0.575-0.16-1.548-0.238-2.519-0.238-0.973 0-1.945 0.078-2.52 0.238-2.741-1.881-4.552-2.080-4.552-2.080-0.789 1.987-0.781 4.061-0.634 4.426-0.928 1.008-1.495 2.219-1.495 3.871 0 7.186 5.963 7.301 7.467 7.301 0.342 0 1.018 0.002 1.734 0.002s1.392-0.002 1.732-0.002c1.506 0 7.467-0.115 7.467-7.301 0-1.652-0.566-2.863-1.494-3.871zM10.028 16.915h-0.056c-3.771 0-6.709-0.449-6.709-4.115 0-0.879 0.31-1.693 1.047-2.369 1.227-1.127 3.305-0.531 5.662-0.531 0.010 0 0.020 0 0.029 0s0.018 0 0.027 0c2.357 0 4.436-0.596 5.664 0.531 0.735 0.676 1.045 1.49 1.045 2.369 0 3.666-2.937 4.115-6.709 4.115zM6.821 11.309c-0.718 0-1.3 0.807-1.3 1.799 0 0.994 0.582 1.801 1.3 1.801s1.301-0.807 1.301-1.801c0-0.992-0.582-1.799-1.301-1.799z">
      </path>
    </symbol>
    <symbol id="icon-twitter-with-circle" viewBox="0 0 24 24">
      <title>twitter-with-circle</title>
      <path
        d="M10 0.4c-5.302 0-9.6 4.298-9.6 9.6s4.298 9.6 9.6 9.6 9.6-4.298 9.6-9.6-4.298-9.6-9.6-9.6zM13.905 8.264c0.004 0.082 0.005 0.164 0.005 0.244 0 2.5-1.901 5.381-5.379 5.381-1.068 0-2.062-0.312-2.898-0.85 0.147 0.018 0.298 0.025 0.451 0.025 0.886 0 1.701-0.301 2.348-0.809-0.827-0.016-1.525-0.562-1.766-1.312 0.115 0.021 0.233 0.033 0.355 0.033 0.172 0 0.34-0.023 0.498-0.066-0.865-0.174-1.517-0.938-1.517-1.854v-0.023c0.255 0.141 0.547 0.227 0.857 0.237-0.508-0.34-0.841-0.918-0.841-1.575 0-0.346 0.093-0.672 0.256-0.951 0.933 1.144 2.325 1.896 3.897 1.977-0.033-0.139-0.049-0.283-0.049-0.432 0-1.043 0.846-1.891 1.891-1.891 0.543 0 1.035 0.23 1.38 0.598 0.431-0.086 0.835-0.242 1.2-0.459-0.141 0.441-0.44 0.812-0.831 1.047 0.383-0.047 0.747-0.148 1.086-0.299-0.253 0.379-0.574 0.713-0.943 0.979z">
      </path>
    </symbol>
    <symbol id="icon-twitter" viewBox="0 0 24 24">
      <title>twitter</title>
      <path
        d="M17.316 6.246c0.008 0.162 0.011 0.326 0.011 0.488 0 4.99-3.797 10.742-10.74 10.742-2.133 0-4.116-0.625-5.787-1.697 0.296 0.035 0.596 0.053 0.9 0.053 1.77 0 3.397-0.604 4.688-1.615-1.651-0.031-3.046-1.121-3.526-2.621 0.23 0.043 0.467 0.066 0.71 0.066 0.345 0 0.679-0.045 0.995-0.131-1.727-0.348-3.028-1.873-3.028-3.703 0-0.016 0-0.031 0-0.047 0.509 0.283 1.092 0.453 1.71 0.473-1.013-0.678-1.68-1.832-1.68-3.143 0-0.691 0.186-1.34 0.512-1.898 1.861 2.285 4.644 3.787 7.781 3.945-0.064-0.277-0.097-0.564-0.097-0.861 0-2.084 1.689-3.773 3.774-3.773 1.086 0 2.067 0.457 2.756 1.191 0.859-0.17 1.667-0.484 2.397-0.916-0.282 0.881-0.881 1.621-1.66 2.088 0.764-0.092 1.49-0.293 2.168-0.594-0.506 0.758-1.146 1.422-1.884 1.953z">
      </path>
    </symbol>
  </defs>
</svg>