<svg width="48" height="48" viewBox="0 0 48 48" fill="none" xmlns="http://www.w3.org/2000/svg">
  <path
    d="M44 39C44 33.696 41.8929 28.609 38.1421 24.858C34.3914 21.107 29.3043 19 24 19C18.6957 19 13.6086 21.107 9.8579 24.858C6.1071 28.609 4 33.696 4 39H24H44Z"
    stroke="#A5A7B8" stroke-width="3" />
  <path fill-rule="evenodd" clip-rule="evenodd"
    d="M24 10C24 10.552 24.4477 11 25 11C25.5523 11 26 10.552 26 10C26 9.448 25.5523 9 25 9C24.4477 9 24 9.448 24 10ZM20 10C20 10.552 20.4477 11 21 11C21.5523 11 22 10.552 22 10C22 9.448 21.5523 9 21 9C20.4477 9 20 9.448 20 10ZM17 11C16.4477 11 16 10.552 16 10C16 9.448 16.4477 9 17 9C17.5523 9 18 9.448 18 10C18 10.552 17.5523 11 17 11ZM12 10C12 10.552 12.4477 11 13 11C13.5523 11 14 10.552 14 10C14 9.448 13.5523 9 13 9C12.4477 9 12 9.448 12 10ZM25 17C24.4477 17 24 16.552 24 16C24 15.448 24.4477 15 25 15C25.5523 15 26 15.448 26 16C26 16.552 25.5523 17 25 17ZM20 16C20 16.552 20.4477 17 21 17C21.5523 17 22 16.552 22 16C22 15.448 21.5523 15 21 15C20.4477 15 20 15.448 20 16ZM17 17C16.4477 17 16 16.552 16 16C16 15.448 16.4477 15 17 15C17.5523 15 18 15.448 18 16C18 16.552 17.5523 17 17 17ZM12 16C12 16.552 12.4477 17 13 17C13.5523 17 14 16.552 14 16C14 15.448 13.5523 15 13 15C12.4477 15 12 15.448 12 16Z"
    fill="#FE5E00" />
  <path
    d="M43.6673 11.094C43.9895 10.806 44.5003 11.035 44.5003 11.467V30C44.5003 30.276 44.2764 30.5 44.0003 30.5H23.2432C22.784 30.5 22.5677 29.933 22.9102 29.627L43.6673 11.094Z"
    stroke="#FE5E00" stroke-width="3" />
  <path
    d="M14 26.5C17.0376 26.5 19.5 24.0376 19.5 21C19.5 17.9624 17.0376 15.5 14 15.5C10.9624 15.5 8.5 17.9624 8.5 21C8.5 24.0376 10.9624 26.5 14 26.5Z"
    stroke="#5879DA" stroke-width="3" />
</svg>