<svg width="48" height="48" viewBox="0 0 48 48" fill="none" xmlns="http://www.w3.org/2000/svg">
  <path fill-rule="evenodd" clip-rule="evenodd"
    d="M14.6248 18.9999C14.6248 21.1402 16.3597 22.875 18.4998 22.875C20.6399 22.875 22.3748 21.1402 22.3748 18.9999C22.3748 16.8602 20.6399 15.1253 18.4998 15.1253C16.3597 15.1253 14.6248 16.8602 14.6248 18.9999ZM13.4333 15.1033L12.1922 13.9942L13.494 12.6926L14.6032 13.9336C14.8303 13.7585 15.0663 13.6006 15.3097 13.4604L14.5885 11.9616L16.2887 11.2569L16.8383 12.8278C17.1135 12.7539 17.3922 12.6991 17.6727 12.6627L17.5798 11H19.42L19.3267 12.6627C19.6078 12.6991 19.8864 12.7543 20.1611 12.8278L20.7109 11.2569L22.4116 11.9616L21.6899 13.4604C21.9331 13.601 22.1696 13.7588 22.3968 13.9341L23.5063 12.6926L24.8074 13.9939L23.5665 15.1033C23.7414 15.3305 23.8995 15.5668 24.0397 15.8102L25.5385 15.0886L26.2429 16.7891L24.6725 17.3389C24.746 17.6134 24.801 17.8925 24.8375 18.1729L26.5 18.08V19.9207L24.8375 19.8274C24.801 20.1078 24.746 20.3868 24.6721 20.6615L26.2429 21.2116L25.5385 22.9119L24.0397 22.1898C23.8991 22.4334 23.7412 22.6695 23.5663 22.897L24.8074 24.0065L23.5063 25.3077L22.3968 24.0664C22.1696 24.2415 21.9331 24.3994 21.6899 24.54L22.4116 26.0387L20.7109 26.7431L20.1611 25.1726C19.8864 25.2461 19.6078 25.3012 19.3267 25.3376L19.42 27H17.5798L17.6727 25.3376C17.3922 25.3012 17.1135 25.2461 16.8383 25.1726L16.2887 26.7431L14.5882 26.0387L15.3097 24.54C15.0663 24.3994 14.8303 24.2415 14.6032 24.0664L13.494 25.3077L12.1922 24.0065L13.4333 22.8967C13.2584 22.6695 13.1003 22.4334 12.9599 22.1898L11.4611 22.9114L10.7569 21.2109L12.3274 20.6615C12.2535 20.3868 12.1986 20.1078 12.1623 19.8274L10.5 19.9207V18.08L12.1623 18.1729C12.1986 17.8925 12.2535 17.6134 12.3274 17.3389L10.7569 16.7891L11.4611 15.0886L12.9599 15.8102C13.1003 15.5668 13.2584 15.3305 13.4333 15.1033Z"
    fill="#FE5E00" />
  <path opacity="0.7" d="M31 6H6V42H31V6Z" stroke="white" stroke-width="3" stroke-linecap="round"
    stroke-linejoin="round" />
  <path fill-rule="evenodd" clip-rule="evenodd"
    d="M15 30C15 30.552 15.4477 31 16 31C16.5523 31 17 30.552 17 30C17 29.448 16.5523 29 16 29C15.4477 29 15 29.448 15 30ZM11 30C11 30.552 11.4477 31 12 31C12.5523 31 13 30.552 13 30C13 29.448 12.5523 29 12 29C11.4477 29 11 29.448 11 30ZM8 31C7.4477 31 7 30.552 7 30C7 29.448 7.4477 29 8 29C8.5523 29 9 29.448 9 30C9 30.552 8.5523 31 8 31ZM3 30C3 30.552 3.4477 31 4 31C4.5523 31 5 30.552 5 30C5 29.448 4.5523 29 4 29C3.4477 29 3 29.448 3 30ZM16 37C15.4477 37 15 36.552 15 36C15 35.448 15.4477 35 16 35C16.5523 35 17 35.448 17 36C17 36.552 16.5523 37 16 37ZM11 36C11 36.552 11.4477 37 12 37C12.5523 37 13 36.552 13 36C13 35.448 12.5523 35 12 35C11.4477 35 11 35.448 11 36ZM8 37C7.4477 37 7 36.552 7 36C7 35.448 7.4477 35 8 35C8.5523 35 9 35.448 9 36C9 36.552 8.5523 37 8 37ZM3 36C3 36.552 3.4477 37 4 37C4.5523 37 5 36.552 5 36C5 35.448 4.5523 35 4 35C3.4477 35 3 35.448 3 36Z"
    fill="#FE5E00" />
  <circle cx="34.5" cy="30.5" r="7.5" stroke="#5879DA" stroke-width="2" />
  <path d="M40.5 36.5L44.5 40.5" stroke="#5879DA" stroke-width="3" stroke-linecap="round" stroke-linejoin="round" />
</svg>