<svg width="48" height="48" viewBox="0 0 48 48" fill="none" xmlns="http://www.w3.org/2000/svg">
  <mask id="mask0" style="mask-type:alpha" maskUnits="userSpaceOnUse" x="2" y="2" width="43" height="43">
    <path d="M44.9667 2H2V44.9667H44.9667V2Z" fill="#C4C4C4" />
  </mask>
  <g mask="url(#mask0)">
    <path d="M37.5 8.5H10.5V38.5H37.5V8.5Z" stroke="#A2A3B8" stroke-width="3" stroke-linejoin="round" />
    <path d="M33 15H20V17H33V15Z" fill="#5879DA" />
    <path d="M33 20H20V22H33V20Z" fill="#5879DA" />
    <path d="M33 25H20V27H33V25Z" fill="#5879DA" />
    <path d="M33 30H20V32H33V30Z" fill="#5879DA" />
    <path fill-rule="evenodd" clip-rule="evenodd"
      d="M14 13C14 13.552 14.4477 14 15 14C15.5523 14 16 13.552 16 13C16 12.448 15.5523 12 15 12C14.4477 12 14 12.448 14 13ZM10 13C10 13.552 10.4477 14 11 14C11.5523 14 12 13.552 12 13C12 12.448 11.5523 12 11 12C10.4477 12 10 12.448 10 13ZM7 14C6.4477 14 6 13.552 6 13C6 12.448 6.4477 12 7 12C7.5523 12 8 12.448 8 13C8 13.552 7.5523 14 7 14ZM2 13C2 13.552 2.4477 14 3 14C3.5523 14 4 13.552 4 13C4 12.448 3.5523 12 3 12C2.4477 12 2 12.448 2 13ZM15 20C14.4477 20 14 19.552 14 19C14 18.448 14.4477 18 15 18C15.5523 18 16 18.448 16 19C16 19.552 15.5523 20 15 20ZM10 19C10 19.552 10.4477 20 11 20C11.5523 20 12 19.552 12 19C12 18.448 11.5523 18 11 18C10.4477 18 10 18.448 10 19ZM7 20C6.4477 20 6 19.552 6 19C6 18.448 6.4477 18 7 18C7.5523 18 8 18.448 8 19C8 19.552 7.5523 20 7 20ZM2 19C2 19.552 2.4477 20 3 20C3.5523 20 4 19.552 4 19C4 18.448 3.5523 18 3 18C2.4477 18 2 18.448 2 19Z"
      fill="#FE5E00" />
  </g>
</svg>