<svg width="29" height="30" viewBox="0 0 29 30" fill="none" xmlns="http://www.w3.org/2000/svg">
  <path d="M1.8335 12.8413L14.5002 16.8413" stroke="#292B33" stroke-width="2" stroke-linecap="round"
    stroke-linejoin="round" />
  <path d="M21.272 11.2307L27.1666 12.8414" stroke="#292B33" stroke-width="2" stroke-linecap="round"
    stroke-linejoin="round" />
  <path d="M14.5 16.8413L27.1667 12.8413" stroke="#292B33" stroke-width="2" stroke-linecap="round"
    stroke-linejoin="round" />
  <path d="M14.5002 28.8413L1.8335 24.1746V12.8413" stroke="#292B33" stroke-width="2" stroke-linecap="round"
    stroke-linejoin="round" />
  <path d="M27.1667 12.8413V24.1746L14.5 28.8413V16.8413" stroke="#292B33" stroke-width="2" stroke-linecap="round"
    stroke-linejoin="round" />
  <path d="M14.5 10.8413V6.84131" stroke="#292B33" stroke-width="2" stroke-linecap="round" stroke-linejoin="round" />
  <path
    d="M25.8333 1.95333C25.184 3.97318 23.759 5.65238 21.8716 6.62156C19.9843 7.59074 17.7892 7.77051 15.7693 7.12133L14.5 6.71333C15.1493 4.69348 16.5744 3.01427 18.4617 2.04509C20.3491 1.07592 22.5441 0.896145 24.564 1.54533L25.8333 1.95333Z"
    stroke="#292B33" stroke-width="2" stroke-linecap="round" stroke-linejoin="round" />
  <path
    d="M3.16699 1.95333C3.8163 3.97318 5.24136 5.65238 7.12871 6.62156C9.01606 7.59074 11.2111 7.77051 13.231 7.12133L14.5003 6.71333C13.851 4.69348 12.426 3.01427 10.5386 2.04509C8.65126 1.07592 6.45622 0.896145 4.43633 1.54533L3.16699 1.95333Z"
    stroke="#292B33" stroke-width="2" stroke-linecap="round" stroke-linejoin="round" />
  <path d="M7.72816 11.2307L1.8335 12.8414" stroke="#292B33" stroke-width="2" stroke-linecap="round"
    stroke-linejoin="round" />
</svg>