<svg width="48" height="48" viewBox="0 0 48 48" fill="none" xmlns="http://www.w3.org/2000/svg">
  <path
    d="M27 41.5C29.4853 41.5 31.5 39.4853 31.5 37C31.5 34.5147 29.4853 32.5 27 32.5C24.5147 32.5 22.5 34.5147 22.5 37C22.5 39.4853 24.5147 41.5 27 41.5Z"
    stroke="#A5A7B8" stroke-width="3" />
  <path
    d="M8 31V23C8 14.163 15.1634 7 24 7C32.8366 7 40 14.163 40 23V29.912C40 30.59 39.6561 31.223 39.0865 31.591L31.5 36.5"
    stroke="#A5A7B8" stroke-width="3" />
  <path
    d="M8 36C10.2091 36 12 34.2091 12 32C12 29.7909 10.2091 28 8 28C5.79086 28 4 29.7909 4 32C4 34.2091 5.79086 36 8 36Z"
    fill="#5879DA" />
  <path fill-rule="evenodd" clip-rule="evenodd"
    d="M15 13C15 13.552 15.4477 14 16 14C16.5523 14 17 13.552 17 13C17 12.448 16.5523 12 16 12C15.4477 12 15 12.448 15 13ZM11 13C11 13.552 11.4477 14 12 14C12.5523 14 13 13.552 13 13C13 12.448 12.5523 12 12 12C11.4477 12 11 12.448 11 13ZM8 14C7.4477 14 7 13.552 7 13C7 12.448 7.4477 12 8 12C8.5523 12 9 12.448 9 13C9 13.552 8.5523 14 8 14ZM3 13C3 13.552 3.4477 14 4 14C4.5523 14 5 13.552 5 13C5 12.448 4.5523 12 4 12C3.4477 12 3 12.448 3 13ZM16 20C15.4477 20 15 19.552 15 19C15 18.448 15.4477 18 16 18C16.5523 18 17 18.448 17 19C17 19.552 16.5523 20 16 20ZM11 19C11 19.552 11.4477 20 12 20C12.5523 20 13 19.552 13 19C13 18.448 12.5523 18 12 18C11.4477 18 11 18.448 11 19ZM8 20C7.4477 20 7 19.552 7 19C7 18.448 7.4477 18 8 18C8.5523 18 9 18.448 9 19C9 19.552 8.5523 20 8 20ZM3 19C3 19.552 3.4477 20 4 20C4.5523 20 5 19.552 5 19C5 18.448 4.5523 18 4 18C3.4477 18 3 18.448 3 19Z"
    fill="#FE5E00" />
  <path fill-rule="evenodd" clip-rule="evenodd"
    d="M44 19C44 19.552 44.4477 20 45 20C45.5523 20 46 19.552 46 19C46 18.448 45.5523 18 45 18C44.4477 18 44 18.448 44 19ZM40 19C40 19.552 40.4477 20 41 20C41.5523 20 42 19.552 42 19C42 18.448 41.5523 18 41 18C40.4477 18 40 18.448 40 19ZM37 20C36.4477 20 36 19.552 36 19C36 18.448 36.4477 18 37 18C37.5523 18 38 18.448 38 19C38 19.552 37.5523 20 37 20ZM32 19C32 19.552 32.4477 20 33 20C33.5523 20 34 19.552 34 19C34 18.448 33.5523 18 33 18C32.4477 18 32 18.448 32 19ZM45 26C44.4477 26 44 25.552 44 25C44 24.448 44.4477 24 45 24C45.5523 24 46 24.448 46 25C46 25.552 45.5523 26 45 26ZM40 25C40 25.552 40.4477 26 41 26C41.5523 26 42 25.552 42 25C42 24.448 41.5523 24 41 24C40.4477 24 40 24.448 40 25ZM37 26C36.4477 26 36 25.552 36 25C36 24.448 36.4477 24 37 24C37.5523 24 38 24.448 38 25C38 25.552 37.5523 26 37 26ZM32 25C32 25.552 32.4477 26 33 26C33.5523 26 34 25.552 34 25C34 24.448 33.5523 24 33 24C32.4477 24 32 24.448 32 25Z"
    fill="#FE5E00" />
</svg>