<svg width="48" height="48" viewBox="0 0 48 48" fill="none" xmlns="http://www.w3.org/2000/svg">
  <mask id="mask0" style="mask-type:alpha" maskUnits="userSpaceOnUse" x="2" y="2" width="43" height="44">
    <path d="M44.9667 2.4364H2V45.4031H44.9667V2.4364Z" fill="#C4C4C4" />
  </mask>
  <g mask="url(#mask0)">
    <path fill-rule="evenodd" clip-rule="evenodd"
      d="M22.5 28.1468L19.3102 41.7566L20.4386 41.246C21.7489 40.653 23.2511 40.653 24.5614 41.246L25.6898 41.7566L22.5 28.1468ZM24.4473 23.3081C23.9649 21.25 21.0352 21.25 20.5528 23.3081L15.9263 43.048C15.5477 44.6631 17.1867 46.0104 18.6981 45.3265L21.6755 43.9791C22.1996 43.742 22.8005 43.742 23.3246 43.9791L26.302 45.3265C27.8133 46.0104 29.4523 44.6631 29.0738 43.048L24.4473 23.3081Z"
      fill="#A2A3B8" />
    <path
      d="M27.8009 9.60131C29.2095 10.9657 30.0009 12.8171 30.0009 14.7478C30.0009 16.6784 29.2095 18.5298 27.8009 19.8942C27.2146 20.4621 27.2141 21.3832 27.7997 21.9517C28.3852 22.5201 29.3352 22.5206 29.9214 21.9528C31.8935 20.0426 33.0015 17.4506 33.0015 14.7478C33.0015 12.0449 31.8935 9.45288 29.9214 7.54272C29.3352 6.9749 28.3852 6.97541 27.7997 7.54387C27.2141 8.11233 27.2146 9.03348 27.8009 9.60131Z"
      fill="#5879DA" />
    <path
      d="M17.1992 19.8797C15.7906 18.5153 14.9991 16.6639 14.9991 14.7332C14.9991 12.8026 15.7906 10.9512 17.1992 9.58678C17.7854 9.01895 17.786 8.0978 17.2004 7.52934C16.6148 6.96088 15.6649 6.96037 15.0786 7.5282C13.1066 9.43836 11.9985 12.0304 11.9985 14.7332C11.9985 17.4361 13.1066 20.0281 15.0786 21.9383C15.6649 22.5061 16.6148 22.5056 17.2004 21.9371C17.786 21.3687 17.7854 20.4475 17.1992 19.8797Z"
      fill="#5879DA" />
    <path
      d="M32.0462 5.48339C37.3174 10.5964 37.3174 18.8846 32.0462 23.9975C31.4604 24.5658 31.4605 25.4869 32.0465 26.055C32.6325 26.623 33.5824 26.6229 34.1683 26.0547C40.6108 19.8055 40.6108 9.67548 34.1683 3.42626C33.5824 2.85803 32.6325 2.8579 32.0465 3.42595C31.4605 3.99401 31.4604 4.91516 32.0462 5.48339Z"
      fill="#5879DA" />
    <path
      d="M12.954 23.9975C7.68279 18.8846 7.68279 10.5964 12.954 5.48339C13.5398 4.91516 13.5396 3.99401 12.9537 3.42595C12.3677 2.8579 11.4177 2.85803 10.8319 3.42626C4.38936 9.67548 4.38936 19.8055 10.8319 26.0547C11.4177 26.6229 12.3677 26.623 12.9537 26.055C13.5396 25.4869 13.5398 24.5658 12.954 23.9975Z"
      fill="#5879DA" />
    <path fill-rule="evenodd" clip-rule="evenodd"
      d="M17.999 14.7405C17.999 17.1509 20.0141 19.1049 22.4999 19.1049C24.9857 19.1049 27.0008 17.1509 27.0008 14.7405C27.0008 12.33 24.9857 10.376 22.4999 10.376C20.0141 10.376 17.999 12.33 17.999 14.7405ZM24.0002 14.7405C24.0002 15.544 23.3285 16.1953 22.4999 16.1953C21.6713 16.1953 20.9996 15.544 20.9996 14.7405C20.9996 13.937 21.6713 13.2856 22.4999 13.2856C23.3285 13.2856 24.0002 13.937 24.0002 14.7405Z"
      fill="#5879DA" />
    <path fill-rule="evenodd" clip-rule="evenodd"
      d="M25 38C25 37.448 24.5523 37 24 37C23.4477 37 23 37.448 23 38C23 38.552 23.4477 39 24 39C24.5523 39 25 38.552 25 38ZM29 38C29 37.448 28.5523 37 28 37C27.4477 37 27 37.448 27 38C27 38.552 27.4477 39 28 39C28.5523 39 29 38.552 29 38ZM32 37C32.5523 37 33 37.448 33 38C33 38.552 32.5523 39 32 39C31.4477 39 31 38.552 31 38C31 37.448 31.4477 37 32 37ZM37 38C37 37.448 36.5523 37 36 37C35.4477 37 35 37.448 35 38C35 38.552 35.4477 39 36 39C36.5523 39 37 38.552 37 38ZM24 31C24.5523 31 25 31.448 25 32C25 32.552 24.5523 33 24 33C23.4477 33 23 32.552 23 32C23 31.448 23.4477 31 24 31ZM29 32C29 31.448 28.5523 31 28 31C27.4477 31 27 31.448 27 32C27 32.552 27.4477 33 28 33C28.5523 33 29 32.552 29 32ZM32 31C32.5523 31 33 31.448 33 32C33 32.552 32.5523 33 32 33C31.4477 33 31 32.552 31 32C31 31.448 31.4477 31 32 31ZM37 32C37 31.448 36.5523 31 36 31C35.4477 31 35 31.448 35 32C35 32.552 35.4477 33 36 33C36.5523 33 37 32.552 37 32Z"
      fill="#FE5E00" />
  </g>
</svg>